<svg viewBox="0 0 506 647" xmlns="http://www.w3.org/2000/svg" fill-rule="evenodd" clip-rule="evenodd" stroke-linejoin="round" stroke-miterlimit="2"><g fill-rule="nonzero"><path fill="#222" d="M494.28 293.25a38.5 38.5 0 00-29.66-11.55l-133.98 7.46 73.74-83.97a45.03 45.03 0 009.44-42.16 38.26 38.26 0 00-17.14-24.32c-.28-.2-176.25-102.43-176.25-102.43a38.42 38.42 0 00-44.87 4.56L89.6 117.5a38.43 38.43 0 1051.16 57.35l65.17-58.13 53.87 31.29-95.1 108.3a195.94 195.94 0 00-102.76 50.8l49.66 49.66a125.86 125.86 0 0184.92-32.87c69.66 0 126.34 56.68 126.34 126.35 0 32.66-12.46 62.47-32.87 84.92l49.66 49.65a195.76 195.76 0 0053.38-134.57c0-31.04-7.2-60.39-20.01-86.48l51.86-2.9-12.62 154.76a38.43 38.43 0 0076.6 6.24l16.2-198.68a38.42 38.42 0 00-10.78-29.95zM423.1 128.65A64.32 64.32 0 10423.1 0a64.32 64.32 0 000 128.65zM196.52 576.6c-69.67 0-126.35-56.67-126.35-126.34 0-26.26 8.06-50.66 21.82-70.89l-50.2-50.2A195.62 195.62 0 000 450.27c0 108.53 87.98 196.51 196.52 196.51 45.69 0 87.7-15.63 121.08-41.79l-50.2-50.19a125.64 125.64 0 01-70.88 21.82z"/></g></svg>
