<svg xmlns:svg="http://www.w3.org/2000/svg" xmlns="http://www.w3.org/2000/svg" viewBox="0 0 23.498751 7.625" height="7.625" width="23.498751"><g transform="matrix(1.25,0,0,-1.25,-256.02375,393.9)" id="g10"><path id="path430" d="m219.86 312.545c-0.129 0-0.234 0.105-0.234 0.232l0 1.174c0 0.127 0.105 0.232 0.234 0.232l2.352 0c0.384-0.005 0.694-0.319 0.694-0.701l0.008-0.705c0-0.127-0.104-0.232-0.233-0.232l-2.821 0zm-3.875 0c-0.13 0-0.235 0.105-0.235 0.232l0 1.174c0 0.127 0.105 0.232 0.235 0.232l2.82 0c0.127-0.005 0.225-0.107 0.225-0.232l0-1.174c0-0.125-0.098-0.227-0.225-0.232l-2.82 0zm-3.885 0c-0.128 0-0.232 0.105-0.232 0.232l0 1.174c0 0.127 0.104 0.232 0.232 0.232l2.82 0c0.132 0 0.237-0.105 0.237-0.232l0-1.174c0-0.127-0.105-0.232-0.237-0.232l-2.82 0zm-3.876 0c-0.128 0-0.232 0.105-0.232 0.232l0 1.174c0 0.127 0.104 0.232 0.232 0.232l2.822 0c0.13 0 0.235-0.105 0.235-0.232l0-1.174c0-0.127-0.105-0.232-0.235-0.232l-2.822 0zm-1.054 1.406c0 0.127-0.104 0.232-0.234 0.232l-0.712 0c-0.129 0-0.234-0.105-0.234-0.232l0-3.408c0-0.129 0.105-0.234 0.234-0.234l0.712 0c0.13 0 0.234 0.105 0.234 0.234l0 3.408zm-1.883-4.344c-0.257 0-0.468 0.209-0.468 0.468l0 2.001c0 0.128 0.104 0.233 0.234 0.233l0.118 2.597c0.009 0.123 0.112 0.214 0.232 0.214l17.044 0c0.643-0.005 1.162-0.528 1.162-1.169l0.009-2.821 0-0.705-4.046-0.818c0.036 0.118 0.054 0.234 0.054 0.349 0 0.652-0.532 1.174-1.18 1.174-0.64 0-1.172-0.522-1.172-1.174 0-0.115 0.018-0.231 0.055-0.349l-7.158 0c0.036 0.118 0.054 0.234 0.054 0.349 0 0.652-0.532 1.174-1.178 1.174-0.641 0-1.174-0.522-1.174-1.174 0-0.115 0.019-0.231 0.055-0.349l-2.641 0M209.047 310.894 209.047 310.894c0.516 0 0.937-0.419 0.937-0.938 0-0.518-0.421-0.936-0.937-0.936-0.519 0-0.939 0.418-0.939 0.936 0 0.519 0.42 0.938 0.939 0.938zm0-0.469c0.257 0 0.469-0.209 0.469-0.469 0-0.259-0.212-0.467-0.469-0.467-0.259 0-0.468 0.208-0.468 0.467 0 0.26 0.209 0.469 0.468 0.469M218.446 310.894c0.515 0 0.936-0.419 0.936-0.938 0-0.518-0.421-0.936-0.936-0.936-0.519 0-0.938 0.418-0.938 0.936 0 0.519 0.419 0.938 0.938 0.938zm0-0.469c0.259 0 0.469-0.209 0.469-0.469 0-0.259-0.21-0.467-0.469-0.467-0.26 0-0.469 0.208-0.469 0.467 0 0.26 0.209 0.469 0.469 0.469" style="fill-rule:evenodd;fill:#000"/></g></svg>