<svg xmlns="http://www.w3.org/2000/svg" width="16" height="22"><path fill="#fff" stroke="#000" stroke-width="1" d="M7.9995.6155c-1.337 0-2.572.33-3.705.99-1.132.662-2.028 1.558-2.69 2.69-.659 1.133-.989 2.368-.989 3.705 0 1.165.288 2.258.862 3.28.574 1.022 1.325 1.934 2.252 2.738.032.025.128.105.288.24.16.136.28.24.364.314.082.074.205.187.37.34.163.15.304.286.423.405.12.12.255.265.407.437.15.172.293.344.424.517 1.09 1.429 1.756 2.539 1.994 3.336.238-.796.903-1.908 1.994-3.335.13-.172.273-.344.424-.516.152-.172.288-.318.407-.437.12-.12.26-.254.424-.406l.368-.338c.083-.073.204-.178.364-.314.16-.135.256-.215.29-.24.926-.804 1.677-1.716 2.25-2.738.575-1.022.863-2.115.863-3.28 0-1.337-.33-2.572-.99-3.705-.662-1.132-1.558-2.028-2.69-2.69-1.132-.662-2.367-.992-3.704-.992z"/></svg>