<svg id="svgmap" xmlns="http://www.w3.org/2000/svg" xmlns:xlink="http://www.w3.org/1999/xlink" width="800" height="1130" viewBox="0 0 800 1130">
<g>
<a xlink:href="/regions/W">
<title>Wales</title>
<path d="M410.42 798.04l-5.63-5.68.23-2.7-7.05-7.2 4.86-9.75-.82-3.1 9.32-2.13 8.8 2.52 3.36 9.3 11.14 2.18-3.04 4.68-7.9 4.8-1.33 3.13-7.08 5.34-4.88-1.4zm75.67-16.98l7.23 8.3 8.9 5.67 1.16 4.2-3.33 2.02 5.82 4.34 2.6 11.9 6.72 1.82-.34 6.04-4.64 2.92-2.47-4.95-5.34.12-2.76-2.36-7.88 2.8-5.05 11.36.48 2.7 9.18 3.7-3.1 11.8-5.6 6.17 1.36 4.73 6.32-3.3.4 5.83-7.03 1.93-7.85 4.57.08 2.17 11.67 9.5 1.55 6.86-5.93 7.77.15 6.05-2.34 6.68 1.45 5.98 6 10.6 2.84 1.93 6.16-2 5.56 5.22.7 3.54 6.8 2.32-2.16 5.88.27 18.24-2.98 2.45-3.87 4.52-.46-.04-1.23.47-.04.02-9.8-1.6-8.8 3.56-5.7 5.28-.46 3.57-8.05 1.86-7.7.33-9.8-2.65-5.78-8.03-5.95-3.07-2.52-6.97-3.82-4.44-6.44-.54-2.7 4.6-8.7-1-7.32 2.37-4.56-7.25 3.93-4.5-5.27-2.5-5.96-5.3-8.14-2.16-5.64.3-3.16 6.12-5.88 3.2-5.3-1.15-4.6 4.46-8.25-2.88-.45-4.6-8.58-7.93 7.26-4.92-1.43-8.07-10.94-2.32 7.63-6.87 5.9-1.04 3.6-6.66 6.05 3.34 7.34-1.9 8.32-9.36 5.7-1.75 6.8.77 6.9-3.9 3.7-3.77 4.24-.2 6.97-4.35 5.62-7.54 5.5-14.4-.3-4.97-3.82-8.9 5.04-8-1.08-5.54-4.12-6.57 2.17-4.2-2.82-6-3.44-2.04-10.5 1.88-4.34 2.25-5.47 7.07-4.52-2.7-6.8 1.63.08-5.57 9.67-8.1 3.8-.05 10.92-9.1.5-7.5 9.45-7.64 1.03-2.7 5.97-2.97 2.62-3.6 5.7 2.12 6.5-2.6.4-5.38 5.7 1.86 4.87 3.8 5.77.4 6.64-3.84 11.27-2.45 6.32 2.76z"/>
</a>
<a xlink:href="/regions/S">
<title>Scotland</title>
<path d="M567.3 526.05l-7.05 7.7-6.1 8.5-4.77 2.47 5.36 8.78 2.56 8.5-7.82 5.73-4.1 5.87-6.5-.5-9.6 9.4-3 7.12-7.57 5.2-5.2 5.82-8.24 5.26-3.1 5.8-14.86.6-5.46 3.2-6.1-.08-7.23 7.36-3.7-1.03-7.8 1.54-9.27 6.26-7.48.02-4.03-1.6-3.75-5.03-6.2-2.9-2.83 12.45-2.88 5.1-9.65-6.74-1.27-3.87-6.22-5.58-7.48-3.76-10.44 7.78-8.17-10.05-1.77-5.82 2.22-9.4 4.2-.25.97 8.94 4.12-.36-3.2-9.98 5-11.78 8.05-7.58 1.74-10.45 4.63-3.83.58-3.88 6.75-4.05 2.54-6.67-4.34-11.13-6.12-3.84-4.62-5.96 3.5-7.65-1.6-4.76 1.46-12.87 1.9-4.68-.58-5.24-7.86 18.05-3.13-.9-8.48-9.02-3.2 4.5 1.7 6.6-6.66-2.3-1.72-4.44 1.76-11.38-6.54-.24.88 11.48 5.26 12.23-8.57 7.48-5.54 22.6-4.3 5.94 2.93 7.05-5.1 5-12.08.06 1.3-10.04 4.45-3.4 1.47-14.44 3.08-6.18.77-5.45 6.57-8.22-5.42-3.63 2.87-8.45-3.32-3.28-.64-5.67 12.83-20.37-4.03-9.3 1.92-8.12 6.22-10.02 5.5-1.97-2.12-6.7 1.44-3.28 10.68-11.82-3.12-3.93-6.17 6.36-5.2 3.34-4.4 6.12-7.28 4.08-13.5-7.52-3.94-6.56-2.17-7.74-7.95-.32.48-6.77 12.18-.58 3.7 2 3.68-7.64 4.38-.46.96-5.8-6.4 1.48 1.14-5.44 5.66-13.8 4.72-5.4 1.76-4.98 4.4-4.4.3-7.24-5.27-.16 2.74-6.17-5.58-1.05-3.23-10.96-.07-5.84 2.48-7.68 6.25-.16-4.63-6.37 2.1-5.47-.78-5.74 1.04-11.4 6.07-.5 3.88 8.68 2.58-4.58-3.63-5.83 6-2.03.63 4.74 4.23 1.47 2.12-5.1 10.28-.2 2.88-3.94-6.05-3.7-6-5.67-.18-7.03 7.27 4.63 1.48-3.1-3.66-12.93 7.1-3.95 6.07-.3-2.27-9.06 2.54-5.94 4.92-3.92-3.24-4.1 4.68-5.67 3.43-8.16 12 5.3 6.1 5.7 4.38-4.53 7.44 3.03 2.6 4.84 4.45-3.02 4.95 1.15 4.95-3.23 6.6-.2 7.68 1.66 4.8-.78 7.16-4.7 5.65.13 19.43-2.84 1.44 2.24 6.83 1.08-2 7.1-3.78 5.8 4.24 5.9-3.57 8.2-6.6 6.67-8.08 2.76-8.32 10.3-13.5 10.04-5.16 2.97-.82 3.5-7.75 3.12-2.08 11.6 7.2 3.67-2.9 7.88-3.64 5.54-5.38-2.9-3.6 5.5 7.9-.9-10.16 10.8.7 5.2 5.54-3.7 1.54-4.76 8.72 1.9 6.92-5.48 6.8-1.78 5.65.56 4.27-3.95 6.27-1.97 17.7 7.3 9.82-4 6.6 2.6 18.73 2.4 5.53-2.63 5.9 2.68 6.58-2.86 8.8 3.25 5.3 6.24-.44 4 2.66 10.96-5.02 8.34-6.4 6.46-5.14 10.4-1.25 4.88 2.9 5.65-3.12 2.12-5.3 8.82-3.53 14.06-6.43 8.88-4.8 2.26-4.8 15.13-3.68 6-3.93 1.65-6.3 5.86-4.46 1.46-1.64 10.93 1.97 3.7 4.83.94 5.87 5.34-7.4 6.3-8.12 3.07-6.97-2.72-11.2 9.2-1.5 5.25-6.27.36-1.94 5.62 7.35 1.35 5.03 4.6 10.2-2.4 1.4-3.92 4.93-4.77 11.06 1.32 4.13 5.3 6.4 1.74 6.52 6.33 11.1 2 5.74 11.08zm-221.8-159.6l-4.18 4.24-13.98-3.28-6.18-11.13 4.37-5.82-8.23-5.1-.36 5.6-8.2-4.35-.44-13.7 10.57.28-4.07-5 3.45-4.12 6.43 10.26 4.93-2.97-1.93-11.48 7.94-6.12 7.32 14.17-2.05 21.63 4.82 8.9 7.95 5.9 9.14-2.84 4.34 1.5-1.18 6-6.43 3.65-7.7 10.8-3.84 2.77-4.17-2.53 4.6-12.07-2.92-5.2zm-43.4-76.53l4.45-2.24-11.5-5.04 1.72-4.57-3.33-12.03 6.08-10.98 5.27 1.13 2.78 4.67 7.73-2.43-3.2-7.38 10.55-6.4 5.77-1.45 6.57-5.73 9.4-5.56 4.26 2.43.95 5.07-2.97 6 1.77 2.6-8.5 7.55.02 6.43-10.26 10.5 4.03.9 1.06 7.8-10.6 9.6-7.32-1.2-.14 4.3-6.88-.64 2.57 5.8-5.53.25-2.63 4.48-6.65 2.65-3.4-4.14.5-4.97 7.4-7.4zm314.48-221.2l-5.4 5.6-11.87-8.94.03-6.84 9.1-1.65 1.5 1.66L617.3 53l-5.6-6.17-.67-5.6-8.46-1.6 6.02-4.94 5.13-8.18 5.83-2.66 8.68-1.2.77-7.9 6.36.55.62 7.16-1.77 2.6-1.45 8.86.73 5.18-5.63 3.28 2.02 3.77.4 11.33-3.15 3.34-1.4 6.3.58 7.9-6.24 16.23.98 3.88-3.5 6.04-3.34.7 3.27-12.2 1.64-13-2.52-7.94zM321.8 435.28l1.64-6.85 10.57-4.2 4.54 1.95 4.08 7.2 1.5 5.7 8.57 1.18 8.27 7.92-1.77 5.86-10.33 7.44-8.73-1.92-3.67 2.77-19.65-1.3 3.57-6 4.5 1.48 6.6-7.35 2.54-5.96-5.95-6.46-6.3-1.47zM523.3 210.5l7.07-7.14-3.94-5.35-7.64.73-4.17 2.07-2.47-3.7-6.23-2.76 1.15-15.15 2.02-2.76 6.42-1.22 7.55 4.73 2.5 5-2.15 5.57 6.47 5.33 7.08 1.4-.28 3.8-5.5 7.18-3 7.3-4.9-5.03zM314.85 520.84l-5.7.8-4.67-3.02 2.98-4.27 1.2-8.5 7.5-3.43 2.53 1.65 5.47-4.62 3.65 3.88 1.88 11.9 1.8 2 1 8.46-4.22 4.36-6.54.08-3.13 4-5.38-.9 4.6-5.8-2.97-6.6zm60 5.82l2.9-1.08 4.8 4.2 4 14.04-.44 9.2-2.36 2.43-7.62-.42-4-3.08-1.73-5.2.5-6.03-2.43-4.78 2.4-6.46 3.98-2.82zm-32-29.93l-6.65-2.42 3.28-4.85 15.26-10.66.64 4.52-9.53 13.83-9.5 17.62-5.4-1.97-.87-9.2 3.34-4.74 9.44-2.13zm47.7 17.48l2.45 6.6-3.7 1.9-4.35-6.15-3.9-9.65 3.76-1.94 4.45 4.52 1.3 4.73zM284.3 439.7l2.37-7 8.6 1.63-1.5 3.2-9.47 2.17zm40.9-58.22l6.3 2.67-.33 6.48-3.28 3.27-7.15-6.75 4.46-5.67zM272 371.03l-3.26-.58-1.24-6.3.1-9.64 2.47-7.98-1.32-5.58 3.38-1.67.37-1.6.6.32-.13.12.37-.02.14.07.6.05.45.76.47.34 1.02 1.2.47-.06.44 1.22.86.8 2.66 10.6-4.7 6.36-.14 7.92-3.62 3.67zm7.85-31.3l-3.7.76-2.04-2.26-.3-.22-.33.1-.28-.1-.13-.27-.32-.24-.5.15-.98-.4-.65-3.3 2.25-3.62 2.44-.55.23.58.4.36.3.04.4.3.18.04.13.13.4-.03.4-.2 1.56 1.16 1.13.42 1.83 1.8-2.4 5.34zm69.53 2.25l.06 8.62-5.17.87.8-8.15 4.3-1.34zm-80.77-29.5l12.9.07 4.22-2.72 6.56 6.76-5 10.3-4.75 6.25-3.97-2.08-.68-.18-.55.26-.47-.03-.05-.13-.2.03-1.06-.77-.32-1-.8.43-1.02-.8-.05-1.6-3.08-4.66-4.45-3.72 2.8-6.44zm234.1-112.96l3.27-1.7 7.27 6.07.86 10.63-5.88-.24-5.53-14.78zm-201.16 231.4l5.78-7.66 6.97-4.35-1.2 7.26-3.77 2.77-7.8 2zm-42.38-51.88l6.4-.9 1.23 4.96-3.4 3.13-5.24-.5 1-6.7zm271.78-195.1l5.36 1-2.05 5.38-5.3-2 2-4.4zm12.67.52l.04-3.54 4.27-2.75 2.86 5.3-7.15 1zm96.3-153.63l-1.85-4.9 4.14-1.3 5.14 3.13-1.7 3.47-5.74-.4zm-2.8-10.88l1-11.57 3.98-5.85L646 3.78l.16 9.85-9.07 6.32zM520 174.7l2.34-4 4.86 4.2-3.53 3.63-3.68-3.83z"/>
</a>
<a xlink:href="/regions/EM">
<title>East Midlands</title>
<path d="M656.9 891.28l-2.64.3-3.82 6.9-2.66-2.68-3.97 8.42-13.53 7.32 2.93 5.68-2.97 4.33-4.28-4.94-4.9.15-6.5 3-.86 4.97-4.15 2.02-5.54-.64-1.3-11.45 3.55-1.15-4.94-6.82 7.6-9.8 2.97-10.1-8.36-14-13.38-8.13-2.45-2.8 1.24-5.97-3.34-4.96-6.72-3.36 2.78-5.57 4.64-2.1-3.2-5.28-11.9-3.47-1.34-3.53 1.75-5.45 4.24-2.65-2.88-16.64-3.64-3.96-6.93-2.07-1.37-17.16 3.2-13.1 3.94-3.46 2.42-.02 7.58 8.25-.2 3.7 5.7 4.47 3.25 7.7 4.22.2 8.8-2.46 5.68.48 2.76 3.24 6.87-3.95 3.77-8.77 5.7-1.1.65-3.62 5.32-.3 6.38 2.18 3.67-6.72 7.12.8-.37 5.67 9.83-1.65 4.17-4.44-.9-4.8 5.2.58 2.86-5.4 4.2 4.44.7 8.5 6.4 1.75 2.5-4.8 6.07-1.97 8.02 4.64 4.67 8.35 5.48 14 2.28 8.74-.44 8.85-2.9 8.25-8.3 4.27-2.78 3.3 4.48 4.88 1.85 5.8 2.97 2.9-2.5 6.7-11.7 4.33.05 3.9-5.06 2.07 1.18 7-9.72 2.57-7.55 6.6-4.03-6.1-3.84 4.34 4.2 5.6-2.4 4.27-7.63 7.02 2.1 3.88z"/>
</a>
<a xlink:href="/regions/L">
<title>London</title>
<path d="M706.56 972.98h-.06l-6 4.5-.68 4.36-3.4 3.54-.94 7.8-5.07 5.86-6.28-5.14-5.64 5.4-2.53-4.53-22.3-14.78 2-9.04-1.52-4.25 6.44-1.46 13.66-5.24 5.3-2.88 6.35 1.14-.08 3.6 4.88 4.1 10.43-2.6 5.46 9.62z"/>
</a>
<a xlink:href="/regions/SW">
<title>South West</title>
<path d="M483.46 985.84l.04-.1 21.63-14.17.04-.02.7-.47.14-.04.4.04.45.04 3.87-4.53 3-2.46-.28-18.24 2.16-5.88 3.34-3.04 4.45-.3 5.97-3.73-3.3-8.2 3.96-3.92 6.88 1.08 4.9 4.36 4.8-7.75 9 4.2 3.58-3.16 7.8-1.62 6.3-6 4.92 7.92 1.3 5.25 1.33 6.65-2.76 5.7-1.14 15.07 2.98 4.2-2.9 8.12 10.42 17.4-2.14 4.67 1.7 6-1.22 9.66-4.13-.77-5.53 3.74 3.93 10.24-.68 7.83 1.27 7.4-3.3 2.65-3.75-3.37-7.55-3.58-6.08 1.07.35 3.78 6.7 10.88.74 7.4 7.06 5.47-3.8 2.58-7.4-.86-5.4 4.47-1.55 8.58-6.35 1.32-9.28-5.1-1.72.6-13.3-2.35-2.83 4.47-20.34-13.6-8.66-2.22-7.4 3.37-16.18 2.25-2.56 3.93-8.16 1.7-5.1 6.83 1.86 15.05-4.37 5.38-8.18 4.82-1.95 7.88-3.12 1.38-7.75-1.6-5.14-7.88-5.64-2.1-4.05 1.1-4.5-3-.56-4.46-6.12 3.52-5.52-3.88-8.38-.46-2.74 2.68-14.04.18-4.6-1.22-2.64 9.87-5.46-.23-12.4 5.36-3.42 5.1 1.45 6.77-3.12 5.72-3.52-.57-4.45 4.68-2.64-7.94-4.23-6.22-12.88-4.42-2.22 6.45-8.58 1.98.07-12.05 10.7-6 7.52 1.83 12.18-7.45 1.35-3.64 4.95-2.4 2.72-6.25 5.8-3.66 2.55-10.38 10.96-4.27 3.7-.1 3.42-7.34 5.1-2.4 2.37-4.33 6.08-4.33.66-12.85 3.12-11.5 4.35-.03 4.4 2.8 5.62.45 4.75-4.68 2.7-15.2 5.72-1.96 20.9-.96 1.74-1.36 10.46 3.57 5.18-1.45 8.84 5.2 8.3.76 13.14-3.58.18-4.12 6.97-12.7-8.42 4.46-.52-3.46z"/>
</a>
<a xlink:href="/regions/Y">
<title>Yorkshire</title>
<path d="M688.47 765.1l-6.07 1.97-2.5 4.8-6.4-1.75-.7-8.5-4.2-4.45-2.84 5.4-5.2-.58.9 4.8-4.18 4.45-9.83 1.64.37-5.67-7.13-.8-3.68 6.7-6.38-2.16-5.32.3-.65 3.6-5.7 1.1-3.76 8.78-6.86 3.95-2.76-3.24-5.68-.48-8.8 2.46-4.23-.2-3.24-7.7-5.7-4.46.2-3.7-7.6-8.26-2.4.02-7.87-10.9-4.66-3.3-3.25-5.5 3.14-7.88 4.97-2.98-3.8-9.08-4.4-2.74-2.6-4.36-7.44-1.62-.44-4.8-6.58-.8-.54-4.12-4.92-4.06.47-2.83 6.18-7.8 8.5-1.65.2-6.84-2.13-4.65 3.92-2.16.53-6.4 7.46-1.82 6.8-2.2 7 3.1 6.58-5.52 7.03-3.4 3.86.9 6.13 5.35 11.02 1.5 5.23-.97 3.63-2.98 16.6 2.75 4.4-.88 5.6-6.52 7.57 6.27 4.5 1.2 4.13 4.4 6.1 11.98 1.43 5.93 7.3 6 3.15 6.2 7.98 3.36-6.76 6.17-.66 4.87 3.56 12.35 7.76 12.54 9.84 13.93.62 6.1-9.05-3.82-7.86-1.34-7-8.98-3.05.94 5.88 8.15 6.7 5.15 4.53 1.77 3.04 3.93z"/>
</a>
<a xlink:href="/regions/NE">
<title>North East</title>
<path d="M567.3 526.05l4.1 8.22 10.62 5.37 1.65 6.56 3.37 1.64 3.9 5.97 2.6 12.58-2.15 5.17 3.12 5.9-1 6.27 3.9 8.3-1.48 3.8 6.83 16.58 2.78 3.56-.68 6.3 2.95 12.3 3.5 5.5 4.02 2.7.35 5 10.86 6.63 12.23 3.58-5.6 6.5-4.42.9-16.6-2.76-3.63 3-5.23.97-11.03-1.52-6.14-5.35-3.85-.9-7.02 3.4-6.6 5.52-7-3.1-6.8 2.2.1-7.75-7.77-6.9 1.2-5.62-3.73-3.82 2.58-11.04-4.53-4.52-6.28 2.3-4.3-1.54.7-18.72 5.25-3.98-6.77-8.65-3.3-1.4-1.74-5.58 2.97-7.1 9.6-9.43 6.5.5 4.1-5.88 7.83-5.72-2.56-8.5-5.36-8.78 4.78-2.46 6.1-8.5 7.05-7.7z"/>
</a>
<a xlink:href="/regions/NW">
<title>North West</title>
<path d="M487.3 612.3l14.87-.6 3.1-5.8 8.23-5.26 5.2-5.8 7.6-5.22 1.73 5.58 3.3 1.4 6.76 8.66-5.27 3.98-.68 18.72 4.3 1.55 6.27-2.3 4.53 4.52-2.58 11.04 3.72 3.82-1.2 5.63 7.8 6.9-.1 7.75-7.47 1.8-.54 6.42-3.93 2.16 2.14 4.65-.2 6.84-8.5 1.66-6.17 7.8-.47 2.82 4.92 4.06.54 4.1 6.57.8.43 4.82 7.44 1.62 2.6 4.36 4.4 2.74 3.8 9.08-4.98 2.98-3.15 7.88 3.25 5.5 4.66 3.3 7.86 10.9-3.95 3.45-3.2 13.1 1.38 17.15-5.25 4.17-5.15 1.15-6.2 6.9-8.56 3.8-.17 5.64-9.26 4.36-5.05-3.8-7.5.26-6.73-1.83-2.6-11.9-5.83-4.35 3.32-2.03-1.18-4.2-8.9-5.66-7.23-8.3-2.4-11.7 8.5 2.72 6.15-2.67-5.25-10.27 4.44-12.67-1.4-4.7 2.44-15.84-.53-7.68 5.8-2.28 1.35-7.9-3-2.85-5.93-1.5-6.33 4.22-12.2-26.42-.7-5.66-2.85-5.8-7.14-10.22 3.6-12.22-.26-4.48 8.32-10.25-.98-6.68 8.1-8.6 1.46-5.3z"/>
</a>
<a xlink:href="/regions/WM">
<title>West Midlands</title>
<path d="M515.22 819.32l7.5-.26 5.05 3.8 9.26-4.35.16-5.64 8.56-3.78 6.2-6.9 5.14-1.16 5.25-4.17 6.93 2.07 3.64 3.96 2.9 16.64-4.25 2.65-1.75 5.45 1.33 3.53 11.9 3.47 3.2 5.28-4.63 2.1-2.78 5.56 6.72 3.36 3.35 4.96-1.23 5.98 2.45 2.8 13.4 8.1 8.35 14-2.96 10.1-7.6 9.82-1.57 3.36-8.06 4.26-3.37 10.45-5.44 3.76-3.36-3.4-1.3-5.26-4.93-7.93-6.3 6.02-7.8 1.62-3.57 3.16-9-4.2-4.8 7.76-4.9-4.35-6.87-1.07-3.97 3.92 3.3 8.2-5.97 3.73-4.46.3-3.34 3.04-6.8-2.33-.7-3.55-5.57-5.23-6.16 2-2.83-1.9-6-10.6-1.46-6 2.34-6.66-.15-6.06 5.93-7.77-1.55-6.86-11.67-9.5-.08-2.17 7.85-4.57 7.04-1.94-.42-5.83-6.32 3.3-1.36-4.74 5.6-6.17 3.1-11.8-9.17-3.7-.48-2.7 5.04-11.37 7.87-2.8 2.76 2.35 5.34-.12 2.47 4.95 4.64-2.92.34-6.04z"/>
</a>
<a xlink:href="/regions/SE">
<title>South East</title>
<path d="M602.47 1072.3l-2.06.4-12.1-9.8-2.32-4.27 11.08-3.17 2.8-2.83 6.68 3.3h5.1l4.24 6.16-6.52 3.76-1.07 4.53-5.83 1.9zm-27.67-17l-7.06-5.46-.73-7.4-6.7-10.9-.36-3.77 6.08-1.07 7.55 3.58 3.74 3.37 3.32-2.64-1.27-7.4.68-7.82-3.93-10.24 5.53-3.75 4.13.76 1.22-9.67-1.7-6 2.14-4.65-10.42-17.4 2.9-8.13-2.97-4.2 1.14-15.08 2.76-5.7-1.33-6.65 3.36 3.4 5.44-3.75 3.37-10.45 8.06-4.26 1.58-3.36 4.95 6.82-3.55 1.15 1.3 11.45 5.55.64 4.14-2.02.85-4.96 6.5-3 4.9-.15 4.28 4.95 2.97-4.33-2.93-5.68 13.54-7.32 3.98-8.42 2.66 2.67 3.82-6.9 2.64-.3 12.94 11.85 2.68 5.05 4.82 2.44-.67 8.95 3.05 2.48 5.8-3.6 7.57 2.54 11.2-5.64 7.35 3.34 5.12-1.66 2.14 2.25 8.4-3.4 5.03 1.55.15 4.55 4.04 6.2 28.58 1.5 4.13.2-1.87 5.68 2.6 2.1-3.66 5.7-7.55 4.77-5.33.5-4.1 3.5-.22 9.02 3.38 1.94-4.5 10.64-9.07 2.63-8.3-1.7 3.73 7.3 11.03 3.32 4.62 6.4 6.68-1.96 11.5-.56 11.28-2.2 1.12 5.97-3.12 1.84 1.16 15.6-1.6 3.3-13.68 7.32-7.08 1.57-5.7 7.68.46 7.67-11.05-1.44-5.2 1.7-4.1 4.2-16.78 4.54-4.43 2.54-5.78 7.26-3.35-.1-19.26-7.5-10.1-2-9.04 2.13-12.2.77-11.08 2.8-4 5.07-8.34-5.74-7.2-1.23-8.03 1.24-4.6-3.72-5.7-.44-2.72 2.74-11.6 4.34-2.48 2.5-9.15-2.22zM706.5 973l.06-.02-5.45-9.62-10.42 2.6-4.88-4.1.08-3.6-6.36-1.14-5.3 2.88-13.65 5.24-6.44 1.47 1.53 4.26-2.02 9.03 22.3 14.77 2.54 4.54 5.64-5.4 6.3 5.14 5.06-5.86.95-7.8 3.4-3.54.68-4.35 6-4.5z"/>
</a>
<a xlink:href="/regions/EA">
<title>East Anglia</title>
<path d="M656.9 891.28l-2.1-3.9 7.64-7 2.38-4.3-4.2-5.57 3.85-4.34 4.04 6.1 7.56-6.6 9.72-2.55-1.17-7 5.07-2.07-.04-3.9 11.7-4.34 2.5-6.7-2.98-2.9 3.53 1.46 4.05-5.66 5.15.74 4.44-8 10.14-3 10.98.97 8.03-.44 10.86 3.22 7.1.52 10.66 5.33 15.5 13.65 2.63 3.34 3.27 10.16-.62 7.2 2.42 7.84-2.52 9.25-5.72 13.35-.3 8.26-2.3 10.04-5.6 3.44-10.78 13.08-1.96-2.6-4.72 1.3-28.58-1.5-4.04-6.2-.15-4.54-5.03-1.55-8.4 3.4-2.13-2.24-5.12 1.67-7.34-3.34-11.2 5.63-7.6-2.53-5.78 3.6-3.05-2.48.67-8.94-4.82-2.43-2.68-5.05-12.94-11.84z"/>
</a></g>
<a xlink:href="/regions/LE">
<title>Leinster</title>
<path d="M181.3 774.8l5.66-2.04 1.4-4.75-3.95-4.4 3.5-4.36 6.43-4.43-2.6-8.56.32-10.74-2.8-6.62 4.1-8.65 6.94-5.58 1.6-5.58 5.1.3 1.28-4.87 8.8-7.22 2.23.6 6.24 8.86 1.7 6.3 3.1 2.94 6.14-3.07 2.9 4.4 7.2-1.95 2 2.6 7.57 1.16 4.57-3.5-2.72-3.78 2.9-4.86 3.63 2.15 5.5-3.7 4.7 2.07 5.74-8.2 4.4-1.55-1.05-3.28-1.25-1.3v-.02h.02l.03-.05.02-.02v-.02l.06-.08-.1-.6.07-.07.02-.03.12-.12.02-.03.02-.03v-.02h.02l.02-.03.03-.02h.02v-.06l.04-.02.02-.02.1-.04.06-.03h.04v-.02l4.3.94.44-.47.8-.12.23-.2.06-.12.05.02.14-.1.6-.33.22-1.02.5.44.16-.05.33.38.26-.2.17.2v.1l.02.04v.02l.05.03.05.07.08.06-.04.05.05.2-.03.02v.02h.02v.02h.02l-.02.02h-.03l-.02-.02-.02.04.02.03.02.02.04-.02.03.13v.2l.04.1.07.18v.02h.02l.02.03.04.02h.06l.02.06.68-.14.3-.13.6-.1h.02l.05.02H293.74l.04.06.08-.1h.07l.02-.03h.02l.02.03v.02h.11l.02.02h.05l.06.02.1.03h.07l.02.02h.09l.04.03h.04v.02h.02l.04.03H294.8v.02l.02.02h.03l.03-.02h.08l.06.03.03.04.03.02.04.06h.17l.03-.02.05-.05.08-.04.02-.08.1-.22.12-.24.02-.07.06-.05.02-.02.04-.02h.15l.14-.07h.6l.04-.02.02-.02.13-.12.08-.06.02-.02v-.04l.03-.07v-.06l.04-.08v-.11h.02V690.97l.02-.07V690.58l-.02-.28.04-.6.14-.7-.22-1.52 3.58.8.6-.2.15-.02.05.02h.02l.03-.02h.03l.82-.1 1.9 3.7 8.02 8.8-3.97 2.08-7.96-4.12-5.24 5.1.57 6.9 7.06 3.88-1.95 13.2.5 6.8 4.3 8.78 4.12 4.4-1.6 6.14-4.2 3.5 2.94 5.83-6.96 8.18 5.9 3.7-.57 7.76 3 9.68-1.5 12.7 2.36 2.96-1.23 4.8-8.64 12.27-.6 7.03-2.97 3.08-3.58 7.85 1.7 6.47-1.38 3.02-9.54 11.4-1.7 5.66-4.65.16-1.17 4.96 3.48 1.65 4.24 5.96-3.9 6.6-6.6-2.23-8.15.46-3.7-4.17-10.17-.86-5.36 1.56-3.55-5.06-12.3-5-3.4 3.2-3.22-3.06-2.95-6.77-4.35-3.96 1.53-5.7-4.5-5.27 1.87-11.9-4.8-13.07-5.82-4.26-1.37-7.55-2.82-5.86 2.9-7.65-5.76-5.64-6.88 8.57-9.08-.6.5-5.17 4.26-.6 5.04-14.18-1-3.2-8.15-6z"/>
</a>
<a xlink:href="/regions/CO">
<title>Connacht</title>
<path d="M66.63 671.93l3.37-1.77 6.22.43 1.6 7.93-4.94 6.35-2.33-7.77-3.92-5.17zm130.3-21.66l4.1 2.9 1.96 4.4-4.52 5.4-1.86 5.9 4.5 1.72 6.48 9.14 2.43-1.6 10.8 10.98-1.52 8.76-2.2-.6-8.82 7.22-1.28 4.87-5.1-.3-1.6 5.58-6.96 5.58-4.1 8.65 2.8 6.62-.3 10.74 2.6 8.57-6.43 4.44-3.5 4.36 3.97 4.4-1.4 4.76-5.68 2.05-5.4 2.8-4.4 6.54-3.2.86-3.92 7-11.44-1.16-2.82-6.53-7.57-.42-7.1 4.28-6.62.46.57-8.7-5.96-4.44-.4-4.92-2.3-2.84v-.07l6.18.08-1.6-5.7-3.33-4.6-7.12 1-12.6-1.18-9.36.9-7.17-4.07 2.66-4.33-4.96-7.65-2.9 4.66-3.84.5-6.9-3.37 6.32-8.82-3.72-.2-4.1 3.36-11.44-4.77 2.1-9.56-.8-4.55 6.93-6.1 8.53 2.03 2.65-2.8-2.02-6.43 2-7.52 16.67-.45 6.38-9.7-11.53-2.02-9.98 1.95-1.85-1.35 3-7.94 4.48-4.55-6.68-10.98 3.86-8.66-2.78-3.7-5.6 5.86-1.13-5.37 1.94-7.06 5.27-3.1 5.06 5.4 6.4-1.83 1.06-5.8 6.66 3.7 4.53-.38 14.4 4.35 6.68.3 3.03 4-1.6 6.38 5.3 4.02 5.57-9 6.66-1.3 6.84 5.25 18.92-.3-7-6.48-1.3-3.38 11.75-4.38 3.4-3.7 8.15-.93 5.82.85 7.14 8.8 1.17 3.27z"/>
</a>
<a xlink:href="/regions/MU">
<title>Munster</title>
<path d="M241.6 878.5l-2.98 10.1-8.33-3.64-2.86 3.1-12.85-1.4-8.03 2.7-6.2-.22.82 5.26-1.9 6.02-7.18.97-3.66 3.43-6.12-.92-4.53 4.46-8.08 4.26-3 3.47-12.48.1 2.7-9.15-7.42-1.62-.73 5.62 4.13 4.28-5.44 8.38-23.5 8.1-2.23 4.3-9.93-3.88-2.34 4.8-6.46-2.98-16.16 5.72-5.55.8-4.14-6.52-8.93.63-18.16 4.87-1.45-3.94 9.2-3.43 6.74-7.14-13.13 4.1 1.1-2.95 7.96-3.55 14.4-4.1 1.12-3.52-6.47-.62-8.02 3.2-15.95-.02-2.14 3.53-6.4 1.27-2.65-6.94L42 913l.08-4.45 7.6-.53 1.73-2.94 13.55-7.97-19.76 4.65-4.45 2.5-8.25 1.3-2.6-2.22 1.2-5.9-4.35-2.82-2.3 3.56-6.7-9.23 7.23-.77.84-6.9 2.35-1.86 18.7-4.04 8.63-10.06-12.23.94-4.86 1.4-15.4-3.97-6.02 2.73-.34-4.03 8.64-9.46 12.47-4.02 1.67 5.13 6.76-2.4 4.62 5.28 3.8.9 9.9-1.87-5.3-4.06 1.38-10.2-6.4-2.56 11.56-2.97 6.4-4.2.88-5.3 4.12-2.9 20.3 3.67 4.1-1.7 14.6-.97 5.1-6.67.86-5.26-3.77-3.15-4.54 7-7.14 6.82-12.1-1-3.5.72-8.9-4.7-10.25 1.74-6.25-.58 10.88-6.9 3.77-5.92 5 1.27 3.16-6.7 3.8-2.28.7-5.22 5.64-3-7.47-3.38 5.3-7.5 7.18-6.9 3.83-5.98 6.42 4.62 5.53-3.23 3.66 2.06.4 4.92 5.96 4.45-.57 8.7 6.6-.47 7.12-4.28 7.57.43 2.82 6.54 11.44 1.16 3.93-7 3.2-.86 4.4-6.53 5.4-2.8 8.15 6.02 1 3.2-5.05 14.18-4.26.6-.5 5.16 9.08.6 6.88-8.55 5.75 5.65-2.9 7.64 2.83 5.85 1.37 7.55 5.8 4.26 4.82 13.06-1.86 11.9 4.5 5.28-1.52 5.7 4.35 3.97 2.95 6.77 3.22 3.05 3.4-3.2 12.3 5z"/>
</a>
<a xlink:href="/regions/UL">
<title>Ulster</title>
<path d="M280.47 683.96l-2.1 5.94.97 1.1.27.97.1.02.03.02.03.06v.04l.04.02h.02l.02.04.06.1v.06h-.03l-.02.02h-.02v.02l-.02.03v.04l.12.23.03.03h.05l.05.03.03.03.02.03v.09h-.02v.07h.1l.05.06h.05l.1-.03.43.54.47-.33.08.07.03.03.18.03.24.2h.03l.03-.14.05-.04.06-.18.02-.04v-.07l.02-.03v-.02l.37-.05.2.16 1.95 3.7-.02.08-.4 1.14.08.12.3 1.3-.85.35-.02.18.35.17-.32.45.03.35h-1l-.32-.05-.96-.96-.2-.24-.44-.23-.05-.06-.15-.1-.08-.02-1.06.66-.07.04v.8l-.13.4h-.94l-.54.1-.1.5.13.5.55.86-.1.16-.6.16.07.06.5 2.15v.03l-.02.43-.03.05h-.08l-.05.02h-.06l-.06.04h-.03l-.08.04-.1.05-.18.03-.13.04h-.03l-.05-.03-.04-.02-.1-.02-.04.02-.16.02-.05.05-.03.02h-.03l-.04.02-.06.06-.05.07-1.52.32-.04.1-.14.4-.02.02-.1.03h-.13l-.68-.3-.15-.04-.23-.34-.06-.03-.54-1.08-.14-.1-1.75-.2-1.1.18-.26.17-.44.93-.17.37v1.02l-.1.13-1-.42-.05.02-.17-.4.1-.1-.4-.26h-.05l-1.62.58-.02.12-1.05 1.2-.32.17-.26-.1-.4-.18-.25.02-.27.2-.07-.45-.07-.1-.27-.08-.28-.02-.2-.04-4.45 1.66 2.72 5.57-4.57 3.5-7.56-1.16-2.02-2.6-4.9 2.43-.48-.12-4.72-4.74-6.14 3.08-3.05-2.94h-.1l-1.66-6.3-6.23-8.86 1.52-8.76-3.03-3.42-.4-.38-.7-.28-.12-.2-5.43-5.64h-.04l-.8-.66-.1.02-.04-.03h-.08l-.06-.4H210l-5.73-3.63-1.64-2.16v-.08l-.05-.26-.82-.36-.22-.2-.25-.54-.18-.3-4.5-1.74 1.86-5.9 4.5-5.4 3.5.83.64 8.67 2.86 2.2.58-.6.64.06h.27v.02h.02l.03.02H211.88v-.02h.02v-.08H212.02l.02.02h.05l.02.02h.16l.03.04h.03l.02.03v.02l.03.02h.02l.02.02v.02h.16v-.02h.02v-.03l.03-.02v-.02l.03-.02v-.02l.03-.02v-.02h.06v.04h-.02v.06h-.02l-.02.02v.08h.21l.17.03v-.02h.02v-.02l.05-.03h.14l.02-.02.06-.03h.09v-.02l.04-.02h.13l.02.02h.1v.02h.06l.1.02h.02v.04l.02.02v.06l.02.1v.04l.02.04.02.04v.04h.02l.02.03v.03l.05.12h.02l.02.03h.05l.05.04h.08l.03.02h.02l.04.03h.21v-.02h.02v-.02h.07l.02.02h.06l.02-.02v-.02h.04l1.33.3.03-.03.03-.02.03-.02.07-.06.07-.05.18-.15.12-.1.04.04.02.03v.02l.03.03.02.02.02.02h.02l.03.03h.02l.02.05.07.03h.02l.02.02.1.15.76 1.32.87.57 2.14 2.6.66 2.34 2.53 2.08.65.14.53-.08 1-.52.02-.02v-.02l.03-.07.02-.04h.02v-.02l.04-.03h.03v-.02H226.6v.13h.02l.02.03.1.02.07.08.18.4h.07l.07-.06h.1l.4.1 1.08.83h.3l.3.17h.11l.02-.03.03-.02.03-.02.04-.03.04-.04v-.02l.02-.03v-.05l.04-.03.06-.02.07-.03h.03v-.02h.03l.03-.02.03-.04v-.02l.02-.06.37-.68v-.13l.06-.1.02-.1-.1-.32.15-.15.2.07.68-.35.74-.82 2.02-.04-.78 1.97 1.17-.3.97 1.93.72-.67.28.03.17-.1.63.88.13.06.1.1h.03l.02.03h.02v.13l-.02.02v.04l-.03.04V680.82l-.02.05-.04.06v.07l.03.03.02.05v.02h.02l.08.04.04.02h.1l.02-.02.03-.05.06-.03.02-.07.18.13.15-.04.03-.1.04-.17v-.05h.03v-.03l.1-.03.06-.05v-.02l.02-.03h.09l.03-.03.05-.04.03-.04.04-.06v-.02l.03-.02.02-.04.08.07.03.04h.03v.04l.02.03v.02h.05l.02.02v.02l-.02.04-.03.04h-.02l-.04.02-.02.04.02.07V681.03l-.03.05.03.04h.02l.04.02.06.1v.15l.07.17.07.03.03-.02.02-.03.02-.03v-.04l.06-.04h.16v-.1l.03-.04h.02l.12-.02.05-.04h.06l.06.03.1-.13.02-.02.02-.02h.02l.02-.03.03-.12.02-.12v-.13l.04-.06-.33-.9-.38-.34v-.09l.03-.03v-.2l-.2-.1-.18.12-.1.06-.08.1-.02-.02-.06-.08-.1-.37.07-.12-.15-.3-.35-.12v-.18l-.02-.03V678l.02-.03.06-.04.3-.04v-.02h.03l.03-.02.4-.25.06-.06.04-.13.1-.1.04-.05.02-.03.03-.02.04-.03.05-.06.13-.06V677h.02v-.02l-.03-.1-.05-.07.7-.76h.09l.04.03.08-.03.37.18.56-.4.04-.08v-.04l.03-.02.65.48v.03H242l-.05.15-.08.16-.16.28-.16.4.02.07v.12l.03.1v.05l.03.08-.4.46 1.52.55.8-.97-.02-.24.04-.08v-.02h-.05v-.05l-.04-.03v-.02h-.02l-.02-.02-.04.04h-.02l-.02-.02-.02-.02h-.02l-.02-.02v-.02l-.02-.05v-.04h-.03v-.16l-.03-.02v-.02h-.02v-.02l.06-.02h.02l.03-.06v-.1l.33-.2.17-.05.14-.03.05-.02h.07l.02-.02v-.02h-.02v-.02h.02l.02-.02.03-.02h.09v-.02h.02l.05.05h.1l.05-.04v-.16l-.02-.02h-.02l-.02-.05-.1-.1-.1-.04h-.13v.03h-.02l-.22-.05-.03-.33v-.13l-.02-.02h-.05l-.03.03-.06.05h-.03l-.02.02-.04-.02v-.09h-.02v-.03h-.04v-.02l.02-.02V675.18l.03-.08h.05v-.02h.02l.03-.2v-.02h-.05l-.03-.1-.03-.03h-.02v-.03l-.02-.02-.02-.02v-.11l.02-.04.1-.1.05-.12.02-.02v-.02l.03-.02.02-.06.04-.14-.02-.08h-.06l-.05-.05-.02-.05-.02-.08.15-.1h.07l.06-.02h.02l.1.02.13-.04.07.02.06.02h.18v.02l.1.14.05-.02h.04l.04-.03.02-.04H244.74l.18.02h.04l.05-.28.18-.13.02-.02-.03-.02-.05-.02h-.02l-.02-.03-.08-.04h-.06l-.15-.04-.14-.17-.04-.07-.3.27h-.1l-.05-.15v-.02l.18-.5 2.44-.62h.14l.02-.02v-.02l.03-.03v-.02l.04-.02h.08l.1-.1h.06l.1-.04H247.5l.17-.12.03-.03v-.02l.44-.66h.26l.04.28.44.43.33.1 1.52-.67-.87-6.36 1.72-5.07 1.94-1.44 1-1.46v-.27l.22.05.03-.02v-.02h.02l.05-.07h.02l.27-.2.05-.02.14-.07.08-.05.1-.06.1-.03.1-.07.1-.08.26-.2.08-.06.03-.2.06-.1.02-.03h.04l.1-.06.04-.03.03-.06h.03l.02-.02.04-.03.04-.02.16-.12h.02l.14-.18.06-.05.04-.03v-.04h.02l.1-.1-.02-.12-.04-.04.08-.1-.02-.15.1-.18.2-.2.08-.04.02-.03.05-.05h.02l.04-.03h.02v-.02l.07-.1.05-.08.1-.16v-.04l.05-.15h.02l.1-.08.03-.03.04-.04.02-.06v-.03l.03-.02v-.04h.02v-.04l-.04-.28.13.1.02.02v-.06l.02-.04.02-.03h.02v-.02l.03-.06.7-.25.3-.24.44-.26h.03l.07-.04.02-.02h.05l2.7 1.5.05.03v.07l.02.03H262.86l.02.02-.15.07v.02h.02l.02.03.2.13-.02.22v.06l-.13.1.17.26.48-.1.24.28.22.14.02.03-.02.18-.02.06v.04l.03.04v.03l-.1.07v.16l.24.14.14.06.07.03.1.03h.04l.04.02h.12l.02-.02.03-.04.02-.03h.06l.06.05v.07l-.02.02v.05h.02v.04l-.05.05-.1.1v.03l.02.02v.03l.02.03.15.14h.02v.02h.02v.02l.02.03.04.06v.02h.03l.04-.03v.1l.03.04h.06l.05-.02.07-.04.08-.06h.06l.08.08h.02v.02h.13l.02.03v.02l.03.03.03.02h.03l.03.02h.02l.02-.02h.1l.02.02.02.02v.03h-.02v.02h-.07l-.02.02-.06.03-.02.02h-.03v-.02h-.04l-.03-.03h-.04v.17l-.04.02h-.03l-.03-.02v-.03h-.08l-.02.02H265.33v.21l.06.1v.07l.03.05.03.02h.02l.03-.07h.08l.04-.02.03-.02.06.03h.02v.02l-.04.03v.05h.05l.02-.02.03-.06.02-.06v-.02h.07l.05-.04.04-.05h.09l.1.04.03.02h.04l.04.03.02.02.02.1.3.26.02.04-.03.12-.08.15.3.23-.27.4.3.86 1.53 1.3.55 1.84v1.52l.03.03.07.06h.06l.04.02.08.05.1.06h-.02v.04h-.02v.02h-.02v.07h.02v.02l-.08.06.05.04v.1h-.04l-.03.02v.03l.02.03v.02h-.03l-.02.02-.06.03h-.02v.05l.03.02.02.08.06.03-.04.14v.08l-.02.02h-.06v.06l.43.72-.18.26.1.3-.1.12H269.22v.04l-.02.02H269.08v.02h-.03l-.03-.03-.02.04v.02h-.02l-.07.02h-.02v-.02h-.05l-.02.04v.02l.02.03v.06l-.03.02h-.02v.02l-.02.02v.03l.02.03.03.06.08.3 1.15 1.9h.02v.02l-.02.1.05.17.06.04.02.06.02.03.02.02.02.02.18.1h.13v.02l.02.13-.1.1-.03.06-.04.08v.18l.02.1-.1.8.66 2.2.83.7-.2.6.44.73.6.34.37.5v.1l.02.1.05.06v.02l.06.02h.07l.44.07h.63v.02l.02.05.03.1v.02l.14.14.02.02v.04h.02v.04l.02.02v.08l.02.04v.06h.02v.04l.02.02V676.9l.02.03V677.03l.07.13.1.08 2.5-.9 1.1.62.83.36h.38l.12-.04.05.06v.02l1.53 2.4V679.87l-.05.32.15 1.44-.96 2.32zm-58.76-56.6l-6.63 2.96-3.58 4.16-.1-.15-.04-.02h-.02l-.02-.02-.04-.08-.1-.1h-.1v-.03h-.18l-.07.02h-.02v.02h-.11l-.2.04-1.07-.3-1.27-.2h-.1l-.3.1-1.54.16-.15-.1-.06-.13-.06-.12-.44.17v-.02h-.07l-.1-.05-.02-.02h-.02v-.02l-.02-.05v-.05l-.04-.04-.02-.03v-.04l-.05-.1h-.02v-.1l-.03-.02h-.13l.03-.06v-.02h.03v-.08l-.76-.87-2.02-.1-.04.08-.1.2-.15.24-.24.4-.03.02h-.02v.1l-1.1 1.4-.28.44v.02l-.02.02-.03.04v.08l-.04.04-.1.03v.05l-.05.02-.02.03.02.02v.03l-.03.04-.06.05-.1.13-.02.02h-.02l-.02.03-.03.08v.03l.02.13-.16.12-4.83 3.33-.82-.08-.38-.08-.28-.05-.07-.02-.18-.04h-.07l-.23-.05v-.02h-.63l-.32-.02h-.06l-.57.1-.26.25-8.6-1.9 4.4-2.23 3.02-7.57 6.72-4.4-2.76-2.18-16.43-.7-7.77.64-6.95-1.75-5.18-4.35-1.36-4.4 9.27-6.05 10.78-1.07.03-5.8 7.23-.4-2.94-5.4.94-7.92 4.28-5.07 3.44.35.62-5.64 3.94-6.46 6.55 1.73 8.92-2.4 3.17-4.47 3.67 3.9 4.38.36 5.44-5.44 7.5-1.94.72 6.32 3.62 2.78 2.78-7.84 7.28-1.2 4.25-7.72 9.27 4.38.6 4.27 11.16 5.57.96 3.67-14.04 6-6.68 7.96h-.03l-.02.02h-.13l-.06.03h-.07l-.04-.03-.04-.02h-.03v-.02h-.03l-.05-.03h-.04l-.08.03-.06.06v.03l-.04.04-.07.05h-.02v.02h-.05l-.04.02h-.07v.02h-.02l-.04.06-.03.1v.05l-.03.04-.02.08-.02.02v.02l-.06.05-.07.1V583.75l-.06.16v.1l-.03.05-.03.02-.04.04-.07.06-.13.14-.03.03-.03.02-.1.07-.17.18-.2.1-.5-.97-.32.2-.06.04-.04.02-.04.02-.06.04-.32.25v.02l-.08.05-.03.02-.03.04-.02.02v.1l-.02.04-.03.04h-.08v.02h-.02l-.02.02v.02h-.02l-.02.02-.02.02h-.05v-.02H249v-.03l-.16-.1-.02-.02-.02-.02-.07-.08v-.06l-.03-.03-.03-.04-.04-.04-.12-.1-.1-.07h-.02v-.02h-.04l-.17-.04-.17-.08h-.1l-.07-.02h-.15l-.06.02.02.07.03.06.02.04h-.03l-.05.02h-.03l-.1.06-.06.07-.47.1-.43.54-.02.02v.04l-.05.1-.02.02-.1-.03-.08-.02-.66.92-1 .6-.36.6v.1l-.04.08v.19l-.02.07v.02h-.02v.06h-.02v.02l-.03.05-.02.05-.03.05v.02h-.02v.02l-.1.07h-.05l-.06.04-.05.04v.02h.03l.04.04h.02l-.03.04v.02l-.04.04-.04.04-.14.18h-.02v.06h.02v.02l.02.02v.04h.02v.08h.04l.25.3h.03v.02h.09l.14-.04h.04l.07.1v.02l.02.02v.02l.03.02v.08l-.04.08-.03.05v.14h-.02l-.03.03h-.04l-.03.02-.18.1-.03.05-.1.1h-.03l-.02.02v.03l-.04.04v.03l-.1.17-.06.28h-.1l-.24.28.28 1.1-.6 1.73.24.35v.25l.28.42-.52.3-1.48-.13-1.23 1-.56 4.06.35 1.8-.27.74-.73.78-.1.6-2.07 3.02-4.26 3.13-1.47 4.63-4.2-1.26-.3.18-.16.1-.15.07-.25.2-.1.06-.54.25-1.1.78-2.2.5-1.53.8h-.02V616.38l-.17.08v.02h-.03v.03l-.03.02h-.05l-.02.02v.04l-.02.02-.02.02-.03.04-.15.38-.04.06v.05h-.04v.04h-.04l-.02.02v.04h-.02v.05h-.02v.02l-.02.02-.06.04H219.53l-.02-.02v-.07l-.03-.03h-.1l-.1-.15.08-.06V617h-.2l-.03.04-.02.02h-.14v-.02l-.03-.02h-.02V617l-.02-.03-.05-.04-.05-.03-.4-.17H218.26v.02h-.05l-.03-.03-.04-.07-.1-.05-.08-.03-.05-.04v-.04l.02-.03.03-.03h.04v-.07l-.04-.1V616.02l-.02-.04-.02-.03-.03-.04-.03-.04-.02-.02-.02-.02-.04-.03-.08-.03-.1-.07H217.5v-.08l-.04-.04-.05-.05-.02-.02h-.07l-.05.03h-.08l-.05-.05v-.03h-.16l-.2.06h-.1l-.03-.03h-.02v.02h-.1v.02h-.06l-.02-.02-.17-.27h.02l.04-.02v-.12h-.02v-.02h-.09l-.03-.03h-.02l-.02-.02v-.04l-.03-.05-.04.03h-.02l-.02-.03v-.02l.05-.1v-.07l-.02-.02v-.02l-.02-.03-.02-.04-.07-.16-.1-.04-.04-.08v-.12h.02v-.03l.02-.05v-.16l-.02-.02v-.11h-.07l-.05-.03-.02-.02v-.08h-.1l-.08-.1-.07-.03-.02-.02h-.06l-.02.03-.03.02h-.15l-.02-.02h-.03l-.38-.14-1.24.87-1 1.32-.23.3-.03.03-.13.18-.03.02-.04.05-.04.06-.05.03-.24.34-.6-.16-.3.28h-.04l-.08-.04-.03-.03h-.02v-.03l-.08-.04h-.02l-.03-.02h-.02l-.02-.04-.03-.02-.62.07-.64.48.23.02.07.13.1.03.08.06.08.12.16.42.47-.13.03.02.02.03v.03l-.04.05v.03l-.02.02v.04h.02v.02h.02v.04l.03.03.02.16-.07.17h-.02l-.03.02-.1.04-.15.1v.03l-.02.06-.03.02-.04.02h-.02l-.1.05-.13.16-.03.02h-.05l-.03.03-.03.02-.1.1-.12.1v.02l-.03.04-.02.07.1.1v.05l.03.22v.04l-.02.17v.02l.03.04v.05l.02.07.04.05.05.16.03.05.04-.03h.03l.02.02h.04v.02h.02v.04l.02.02V620.45h-.03v.02h-.04v.04h.02v.03l.02.02.02.04-.02.03v.03l.02.02.04.02h.02l.03.04.02.03.02.02h.07v.03l.02.02.03.05v.09l.1.17h.03v.02l.07.04h.03l.02.03.02.03v.05l11.37 6z"/>
</a>
<a xlink:href="/regions/NI">
<title>Northern Ireland</title>
<path d="M211.5 634.5l5.76-8.66-7.92-6.63 4.14-4.9 6.25 3.08 7.16-4.16 3.43 1.37 2.25-4.73 7.22-7.58.9-6.8 2.85-6.96 4.12-4.55 4.95 1.32 4.86-1.37 7.15 2.1 3.08-2.74 4.92-11.65 2.42 2.3 9.18 1.38 3.77-2.56 10.1-2.03 2.85-2.5 11.3 3.37 2.95 2.86 5.23-1.97 4.82 3.64 2.1 4.22-1.92 10.9 4.7.9-2.26 6.27 3.53 2.22 2.34 5.94 5 7.5 3.84.03 1.55 8.53-4.5 4.38-5.3 1.5-4.85 5.68 3.35 1.53 7.4-3.93 11.8 3.5 3.16 9.6 1.3 11.57-4.74 12.48-4.1-7.54 3.24-5.16-.83-8.08-8.1-5.1 3.1 12.62-2.08 7.24 4.82.3 1.46 6.82-5.2 7.24-13.08-.45-4 3.18.9 4.23-2.56 6.9-10.4 7.13-1.68-4.36-5.27-1.8-.88-2.47-3-.12-1.47-1.5-1.2-.63.3.36-.07.1-.1.12h-.02l-.02.02h-.02v.02h-.04v.02l-.83.2-.7 1.58-2.63-.9-.16.74V690.83l-.02.03v.16l-.02.05v.07l-.02.02v.07h-.02v.07l-.02.03v.03l-.03.07v.03l-.02.02v.02l-.1.1-.04.03-.05.05v.02h-.02l-.02.03h-.62l-.15.08h-.16l-.04.03-.03.02-.05.03v.03l-.03.07-.12.25-.1.2-.02.1-.08.02-.05.06-.03.02h-.18l-.06-.07-.03-.03v-.02l-.08-.03h-.06l-.02.02h-.04v-.02l-.03-.03h-.18l-.02-.02-.02-.02h-.04l-.02-.02h-.04v-.02h-.06l-.06-.02h-.02l-.2-.04h-.06l-.03-.02H294l-.03-.05h-.02l-.1.03-.06.08-.04-.04h-.11l-.02-.02h-.03l-.03-.02-.6.12-.53.22h-.23l-.24.14.02-.17h-.07l-.03-.03h-.02v-.04l-.14-.24.02-.26-.05-.08v-.02h-.02v-.08l.05.02.02-.02h-.03l-.03-.03v-.03l.02-.03-.1-.3-.04-.04-.02-.03-.03-.03v-.02l-.03-.03V691.17l-.16-.2-1.23-.58-.17.06-.12.4.05.56-.58.32-.07.05-.07.05h-.04l-.07.1-.26.2-.77.12-.46.47-2.6.1-1.02-.5-.4-.22-.15-.23-.1-.08h-.06v.02h-.04l-.1.05h-.02l-.08.04v.06h-.03v.03h-.02v.02h-.02v.04h-.02l-.02.02-.13.13-.1.1h.02v.03l.05.08.05.1v.4l-.04.05-.02.02v.02h-.02v.03h-.02l-.03.05h-.02l-.03-.03-.07-.06-.1-.07-.1.1-.28-.05-1.2.52-2.3-3.08 2.83-10.7-1.55-2.48-7.74-2.4-3.62-14.83-8.48-8.68-12.4 11.54 2.26 1.66-1.38 6.3-8.26 5.18-2.05 5.05-6.3-4.64-1.98 2.82-5.7-.66-6.6-8.8-10.36-2.73.25-7.32-7.3-8.43-3.17-1.08-2.17-10.96 7.5-7.22 9.23 2.4zm0 0l-6.28 5.4 6.16.9 6.34 7.12-1.06-12.54-5.17-.9zm86.6 13.74l4.1-3.4 5.55-8.74-1.52-4.27 4.76-5.2-2.9-2.55-7.5 1.85-7.62-1.65 1.24 7.08-2.62 5.6-5 4.65 2.97 3.84 8.15-.27.37 3.07z"/>
</a>
</svg>
