<svg id="svgmap" width="269.716" height="488" viewBox="0 0 809.148 1464"><a xlink:href="/regions/W" transform="translate(-88.88 178.2)"><path d="M495 1032.6l-9.6 10.6-14.5 7-10-2.6-17.4 14.4-.3 7.4-15 2-21-1.8-9.8-11-7-.4L380 1034l-11 1.8-2 2-3 6.5-13.3-.3-6 3-9-5.2-1.4-6 4-3.8 7.7 1 9.6-4.5-8.2-1-2.5-3-11 1.5-5.8-8.7.8-7.4-6.7 4.2-20.5-.3-2.7 2.4-3.3 9.2-6.6 2.8-6.7-1.7-9.3 8.5-8.8-6-5-6.8 8.8-4.7-13.3-2.2-1.4 5-7.6-8.2 5.4-4.4 7.8-1V999l-6.8-7-10.4 1.3-2.2-3.3.3-4.4 20.7-8.8 1-8.5 7.2-1.3 3.8 4.3 6.3-3.5 7.6 1.4 5.4-7.7 3.3-7 5.7 1.7 1.7-2.7 13.3-.3 16.7-12 13-6 8.3-9.8 9-25.2-1-8.2-7.2-12.2 8.4-11.2 1.2-5.2-8.5-11.4 1.4-6-1.3-8 7-5-28.9 4-11.2 8.7.3 5.5-4 2.7-6.7-6-13.6 4.5-2.5-1.4 19.5-21.5 4.3-.8 18.6-14 .3-14-9-6-9.2-12-5.5-.6-8.2-11.4 10.8-2 1.6-11 24.5-2.2 3.5 10.6 3.8 7.7 14.7-.2-8.8 12 14.5-2.5 14.4-5.2-.6-8 9.8 5.3 12.4 1.8 26.7-9.2 14.3 12.8 46.2 26"/></a><a xlink:href="/regions/S" transform="translate(-88.88 178.2)"><path d="M443-28.3l4.3 7.7-1.7 3.8-18.7-6.6-17.6 6-26.4 3-17.6 4-14.6-8-8.7 4-9-4-14.7-9.5-6 6-7 14L315 2.7 306 5l-4.8 4 4.8 16-16 4-10 2 7.6 12.3 3 8.7H283l-8.7-1.7 14 14.5L299 77l-17 .7-8.6 8.7-12-8-4.4 9.4-8.3-1.8-5.6 2.4v15l10.3 6-10.7 12.8 11 11 3.2 5.2-4.5.8-11.8-8-3.2 9-1 10.4 7 14 14.5 1L249 176l-13.8 4.8-8-8-9.4-7-5.2-9.6 2-16.7.4-12.2-11.4-20.5-9 7.3.6 13.8 5.6 10.4-2.8 3.6-5.2-5.2-9-8.7-7-3-3 5.6 2 14.6-10.5-9.7-3.4 7 1.5 11.5 7.7 7.3 5.5 1.4 6-10 8 8.3-5.7 9 14 20.8 13-1.7 4.4 8.8 6.2-9 5.6 3-2.4 7.7-6.3 13.6 8.4-2.7 5.3-5 8.4-14 7-4.3 5.4.4-13.7 21 7.6 6.5-15 5-7.7 16.8 16.4.7-11.5 12.3-7.3 3.4-19.5 1-5 8 39 5.6-16.4 4.5-2.6 3.5 8 12.5 9.7.7 8 6 24.7-19.5 16.8-16.4-10.5 17-17.3 33.7-8.3 20 4.8 16.8-10.7 22-8 13.4 5.6 5 6-1.3-8.6 12.8 6.6 9.7-11.6 29.2-.3 20.2-8 8.3-2.3 14 19.3-2 5-5.6 10.7-56.3 13.6-8-8.7-20.4-3-9.3 1.6-9 3.8 1 9-9.8-3 11.5-2.8 11.4 2.4 9 8.7 7.8 15 16.6 3-10.4 5.3-15.7 2-10.8 7.3-4 8.5 1 10 6-8.3.3-8.3-1.7-5 4.8-2.4 12.5 3.5 13-6.2 7.4 16.6 15.3 4.2 4.6.3 19-8.3 6.7-3.5 6.2-4.2 7.3-6 17.8-11.3 11-3.7 12 2 22-7.6-15.5-5.5 1.8-1 8.7L278 548l12.4 14.7 3.5 16 6 3.3 1.7.6-7.2-28.4 10.6-6 12.8 10 3 2.2 22.5 16.7 5-19-9.5-9.4 5.2-3 11 7.8 17 9.8 10.2 2.7 12.2-6.6 4-9.7 16 1 2-18 44.3 2.8 3-9.7 13.6-4.4 10-10.8 11.2-12.2 14-20 9.6-.8 18.5-16-13.2-28 14.6-15 3.3-3.8 6.7-6.3-5.6-10.5-7-7.6-16-1.7-7.2-7.8-10.4-4-4.4-8.2L488 371l-7.3 11.5-8.7 3.5-10.4.3-9-4.4-11.5.2-21.3-3.7L399 367l4-3.6 17 7 21.5 3.6 14-7.3 3.6-8.7 17.5-12.4 10 5.4 19.5-14-25-12.8 5.3-4.4 1.2-7.6-8-1.6-23.3 9.8 8-10.3 24-5 5.3 2.2L508 292l7-10 5.8-18 13.3-14.3 8.3-21.2L548 212l2-15 2.7-8.8 10-17.6 12.3-13-2-7.5-3.7-16.7-8.7-11-18.4 1.3-22 1.8-14.5-2.8L487 119l-9.4 3.5-9.7-.3-14.5-6-12 .4-6.7 3-8.8 4.3-13.2 1.5-7.3 6.6-8 3.6-6-3.8-6.2 8.5-8.7 8.7-4-.7 9-13.2 8.6-16L411 93l-9 1-14.7 4.2-7.3.7 13.2-12.7.4-10 11.4-5 1.7-7.6L424 50.3l10.5-7.3 6.3-8.7 6.5-6 13.3-7L469 14l2.7-11-8.7-3 10-24.6-30-3.5z"/><path d="M218.6 165l.3-20.6 8.6-14.5.8 9-1.7 6.5-4 4.5 1 7.7 1.7 5.6-4.6 4.2-2.4-2.5zm-130 52l8.5-12.2 7.3-.7 3 8.3-11 9.3-7.7-4.6zm49 80.2l-1.7-12 2.2-2.3 19.2 1.5-20.6 13.8.6-1.2zm17.7-17.5l10.3-9.6 16.5-12.5-2.5 13-16.3 6.4-7.7 3zM273.7 460l-10-12.3 2.8-9.6-5-6.4 3.8-8.6 8.6-6.7 8 7.3 1 13 5.3 6.2-3.2 19-11.4-1.8zM165.8 416.3l5-25 9.8-3.3 20.4-7.6 2.4 11.6 5.7 25.5-8.7 5.4-14.2 10-4-3.3 1.4-5 3.7-3-3.6-8.7 2.4-4.6 4.5-5.6-4.5-2.5-5 1.5-11 11.5-4 3zm36.4-30.3l7-5.3 4.3-2.2 7-3-7.3-1 3-8.3 14.5-10 8.6-6.7 3 6-5 6-9.3 16.2-15.7 26.5-6.7-3.2-3.4-15zM182 314.6l24 1.2-7.2-5 7.3-17-17-8 4-9 12-8 6 3.3 6.3 12 6 8 10.4.6 10 5.6 3 4-3 14.8-12.2 5.7-7.8-4-33.4 10.8-8-14.7zm.8-100.6l10.6 13.4L202 217l-3.7-9.5H193l-10 6.5zM107.4 192.8l-4.2-20.2 7.6-10.8-2.4-6.8v-4l6-6 6.7 8.5 4.4 5.6.5 8.3-6 8 .5 21.5-13-4z"/><path d="M113 146.4l-3.4-3.7 1.5-7 3.4-2.3-.8-8L99 116l8.6-10 24-.6L142 115l-5.6 10.2-15.3 23-2.2 2-4.2-4.8-2.4 1h1zM148.4 97.7l-11-13.5 11.7-3.7 6-3.5 7.4-3-9.4-6.5L136.4 55l17.7-2.7-11-9 .4-10.6L151 23l6.7 2.8 13.6 6-2.8-16.8 21-12.8 26-16.2 3.4 24-7.8 9-6.4 9.7-4.5 16.5-1.5 16L188 73l-11.8 1-1 5-7 1-.3 6.6-19.7 11zm465.3-203.4l-5.4.2-6.6-4.3-4.3-9 3.2-4.5 4.3 2 4.6 5.8 4.6 6.8-.6 3zm-11.5-21.8l.5-15 5.3-3.6 5 .3 8.4 6.2-3.7 6 7.3 3 12.5 6.6-8 7.4-7-7.6-11 2.8-4-5-5.3-1.3zm19 25.7l-.2-8 6-2.4 1.5 4.7-3 3.6-.8 2.6-3.4-.3zm-3.2-42.7l-3-6 2.6-2.6 6 3 .2 6-5.8-.6z"/><path d="M625-133l2.5-5.7h5l2 3.6-3.5 2.4-6-.5zm6-11.8l2-9.7 4.5 3.3-2 7.4-4.5-1zm8 6.6l2.7-10.3 2.5 2 3 5-.8 3.4-7.3-.3zm-7.8-19.6l-7.4-1.3-5-3.7 2.8-5.3 4.2.3 3.7 5.3 1.7 4.6zm12 1.8l1.4-6.8 4 2.3 6-1.5-.5 4.4-5.4-1.5-1.4 2.5-4.5.2h.7zm-152 68.2l-.2-3.7 3-3.3 2.4 5.3-2 2.8-3-1zm60-22.8l1-3.4 3.3-1.2.7 3.6-3.3 1.7-1.8-.5zM537.8-62l-4.6-1.5-1.4-7.5 4.2-7.2.4-21.5-9.4 6h-4l-8.7-10.7 4.3-4.5 12.7-1.4 3.2-6.4-7.5 2.5-3.3-14H517l7.5-8 3.8-6.6 6 4v9.4l8.3 6 7.7.8-8.8 13.2 4.6 3.8-4 6 6.8 8.4-7.7 4 1 8-4.2 10.7v7zm18.6-75.7l-1.7-6 6.5-.8 3 3.6-2.4 3.4h-5.2zm-10.3 9.2l-4.4-4 2.5-21 4-2.5 4.5 4-3.3 10.3 2.6 5.6-2.4 7.6-3.3-.2zm9.5-21l-2.8-5 2.8-9.6 2-6.4 6 3.4-1 7-3.8 3.8-1 6.4-2.2.2z"/><path d="M578.4-178.2h96.2v82.4h-96.2zm-92.7.2h87.7v127h-87.7z" class="outline"/></a><path d="M458.62 582.6c1.3-1.3 3.7-2 5-.4 11 11.2 22.2 22.3 33.3 33.3 1.7 1.7 3 3.7 3.4 6l10.5 69.4c1.3 6.2 4 12 5.8 18 3 9.4 6.2 18.5 9.3 27.7 1.3 4.8 5.8 7.5 8.8 11 4.4 4 7.8 9 13.3 11.4 14 7 27.6 14 41.5 20.8 1.8 1 3.5 2 4.5 3.8l24 37.6c1.3 2 2.4 4 4 5.7 4.5 3 9.5 5 14 8 .2.4.2 1.5.3 2-4 3-8.4 5.4-12.3 8.4 10.6 21 22 41.3 32.7 62 .8 1 .5 2.5.4 4-7.5 0-15-1.6-22.7-2.3 6.3 7.7 16 11 23.6 17 2 1.7 2.6 4.4 3.7 6.7 5 11.3 10.2 22.5 15.3 33.8 1.5 3.3.3 6.8.2 10.2-.6 4-.5 8-1.4 11.8-2 3.2-5 5.8-7.3 8.7-5.5 6.3-11.4 12.2-16.6 19 9.2 5.3 18.6 10.7 28.2 15.7 4.3-9 7.7-18.2 11.7-27.2.6-1.6 2-3.7 4-3.4h41c3 0 5.5.7 8.3 1l21.7 4c2.7.6 4.5 2.7 6.5 4.3 9 7.7 18 15.3 26.8 23 1.3 1 3 2.2 3.3 4 2 9.7 3 19.4 5 29 .5 4 1.6 8.3.6 12.4l-7.9 37.2c-2 6.2-2.3 12.8-5 18.8-9.4 9.8-19.3 19.2-28.6 29.3 2 1 4 1.6 6 2.4-.2 1.3-.5 2.6-1.6 3.5-4.3 4.2-8.8 8.2-13.2 12.3-2 1.8-4.7 1.7-7.2 2-4 0-8 .4-12.2.4.8 2 2.2 3.5 2.2 5.6v13.7c0 3.3-3 5.5-5 8.2-3 3.8-5.6 8.2-9.2 11.6-5.2 2-11 1-16.4 2.3 3.6 1.8 7.5 2 11 3.5 5.2 1.7 10.2 3.7 15 5.7 4.7 2 7.2 6.8 11.6 9 12.3-1.8 24.4-5 36.7-7.2 1.8-.5 3.6.5 3.3 2.4-1 4-3.7 7.7-4.2 12 1 7.7 3.8 15.2 4.5 23-1.3 2-3.4 3-5.2 4-5 3-10 6-14.8 9.2-4 2.7-9 3-13.3 4.4-1.7.5-2.2 2.4-3 3.8-1.3 2.8-3 5.4-4 8.4 0 3.3 1.2 6.6.5 10-6.2.3-12.3-1.7-18.5-1.7-5 2.6-8.7 7.6-14 10-7.5 2.5-15.2 4.6-22.8 7-3 1-4.5 4-6.5 6.2-2.6 2.8-4.4 6.3-7.5 8.4-4.5-.5-8.5-2.6-12.8-3.7l-30-10c-2-.6-4-.4-6 0-14 2.8-28.2 5-42.3 7.8-1.3 2.7-2 5.4-3.4 8-.7 1-2.4 2-3.7 1-4.2-2-8-5-12.2-7.5-.7-.5-1.5-.7-2.4-.7-7 0-14 .4-20.8.4-5-2.7-9.3-7-14-10.2.4 4-2.4 7.3-5.3 9.7-5 1.8-10.4 2-15.5 3.8-2 2-2.2 5.3-4.7 6.8-3.8.4-7.2-2-11-2-7 3-14.7 3-22 4.3-1 4.4-.8 9-1.7 13.4-.2 1.2-1.7 1.7-2.8 1.5-10.2-1-20.3-2.7-30.5-4-4-.3-7.8-1.4-11.8-1.3-2 2.3-1.4 6.3-3.6 8.6-1.6.6-3-.6-4-1.2l-29-19.2c-2-1.2-4.6-1-7-1.6-3-.2-5.7-1.2-8.5-.6-5.4 1.8-10.3 4.7-16 6-3.8.7-7.6 1.7-11.5 2.6-4.8.6-6.3 6-10 8.4-3 1-6 .8-9 1.2-1.8 4.3-4 8.4-5.6 12.8-.8 2.2 1.6 4 1.4 6-1.4 2.2-3.7 3.4-5.6 5 1.6 1.8 3 3.7 4.5 5.6-1.3 3.8-2 8-4.6 11.3-3 1.6-6.3 2-9.4 3.3-.2 4 1.7 8.4.5 12.4-1.6 1.3-4 .3-6 0-5.3-1.2-11-2-16.3-3.5-4-1.4-5-6.3-8-8.6-5.4-1.6-11-1.6-16.2-3-1.3-.4-2.3-1.7-3.4-2.6-1.6 1.6-3.3 3.5-5.6 4.3-4.7-2.2-7-7.3-11.5-9.8-4-.3-8-.3-11.7 0-3.5 1.2-5.6 4.6-9.2 5.4-5 .2-10-1-15-1-1-.3-2.7-.7-3.4.6-3 5-4 11-7.8 15.6-4.2 1.4-9 1.2-13 2.8-3 2.5-3.5 7-6.8 9.4-3.3 1.5-7 2.2-10.3 3.6 2.4 2.4 5.2 4.5 7.4 7-1.5 3-4.3 4.7-7 6.8-2.7 2.2-5.3 4.7-8.3 6.8-1.4 1.2-3-.2-3.8-1.4-3.5-5.5-6.4-11.3-9.7-16.8-.8-1.4-2.3-2-3.6-2.6-3.4-1.4-6.7-3-10.3-4-3 3.4-4.6 8.8-9.5 9.6-3.4.8-6.7 2-10 2-2.6-1.6-4.5-4.2-6-6.8-.3-2 .7-4 1.3-6 1-3 1.5-6.2 3-9 3.2-2.2 7-3.3 10.4-5 3.4-1.2 6.7-3.2 10.3-4 2.5.3 4.2 2.4 6.2 3.5l34.7-33c.6-1 2-1.5 2-2.7.2-4.6-.5-9.3.3-14 5.5-1.5 11.3-1.5 16.3-4 3.2-1.7 6.7-2.7 9.7-4.6 1.4-3.3-.4-7.7 2.6-10.3 6-4.5 12-8.7 18-13 1-.8 1.7-1.8 1.6-3 0-5 .5-10 .3-15-.3-4.8 2-9.2 3-13.8.5-1.7.7-4.3 3-4.6 6 .4 11.6 3.5 17.7 3.5 3.2-3 6.6-6 9.2-9.5-.3-3.5-3-6-3.8-9.4 0-2.7 1.3-5.2 2.4-7.5.8-1.6 2.7-2 4.4-2.3l36.6-6c6-1.2 11.5 1.5 17.3 2.3 2.3.4 4.5-2 7-1 4.4 2.2 8.7 4.8 13.3 6.8 1.3.7 2.8.5 4 .4 10.3-1.4 20.6-3 30.8-4 1-.3 2.4-.4 3-1.4-.3-4.6-1.6-9-1.3-13.5 0-1 .8-2 1.4-2.8 8-8.4 15.7-17 23.5-25.5 4-4.4 8.2-8.5 12-13.2-.7-1-1.5-2-1.7-3-.6-6.3-.6-12.6-.8-19 0-3.5 0-7-.6-10.7 0-1-1.4-1.7-2.3-2.5-5-3.3-9.6-7-14.5-10.3-3.2-2.5-6.4 2.3-10 1.5-.6-.7-1.2-1.6-1.7-2.5l-12-23.5c-1.2-2-.3-4.3.3-6.4 4-11.5 8.3-23 12.3-34.7-6.8-4-14-7.2-21-11-1.5-.6-2.3-2.8-.7-4 5.4-4 11-7.8 16.3-12-2-1.3-4.6-2-6.7-3.4-1.2-1-.5-2.8 0-4 3.4-8 7.2-15.8 10.5-24 .7-1.3-.7-2.4-1.7-3-3.3-2.6-7-5-10.2-7.4-1.3-1-2.6-2-3-3.6 1.7-4.7 4.7-9 6.6-13.4 1-2.2 2.7-4 5-4 6.7-1 13-2.8 19.8-3 2 2.4 3.3 5.4 5 8 1.4-.4 3-1 4.2-1.7 1-2.4 0-5.2-.3-7.7-2.7-.7-5.6-1-8.2-2-2-.8-2-3.3-2.6-5-1-4.3-1.3-8.8-3-13-2.2-2.3-5.7-3-8-5.3-.8-1-1-2.7.2-3.4 1.6-1.7 3.5-3 5.2-4.7-5.3-4.3-11-8-16.2-12-2.4-1.6-3-4.7-4-7.2-1-3.8-2.8-7.4-3.7-11-.3-1.5.8-2.7 2-3.2 3.8-2 8-3.5 11.7-5.6-1-4-2.8-8-4.2-11.8-.6-1.7-1.3-3.8-.2-5.5 3.2-6.3 6.5-12.4 9.8-18.5.4-1 1-1.7 1-2.7-1.4-4.5-5.6-8-5.6-13 0-5.7.3-11.6.3-17.5 0-2.3 2-3.4 4-4.4 3.5-2 7.2-3.6 10.7-5.6-1-4.7-4-8.7-5-13.4 3.2-2.4 7-4 10-6.4-1-2.6-2.3-5.2-4-7.3-2.7 1.6-4.8 5.3-8.3 4.4-2-2-3-4.6-4.3-7-3.8 4.7-6.8 10-10.4 14.6-.8 1.4-3 2-4 .4-2.4-2.7-5-5.3-6.6-8.5 0-3.3 1.7-6 2.2-9.3-2.6 1.2-5 2.6-7.6 3.3-2.7-3.7-4.6-8-7-12l-20-37c-1.7-3 .2-6.3 1-9.3 2.2-6.2 3.7-12.6 6-18.8 3-5.8 7.8-10.5 11-16.3 2.2-5.2 4-10.6 6-15.8.6-2 2.7-3 4.4-3.8 6.2-3 12.4-6.3 18.7-9.3 7-2.5 11.3-9 16.7-13.6 6.4-6.6 13.7-12.2 19.5-19.2 6-4.3 10.7-10 16.2-15 5.2-5.2 11-10.2 16.3-15.5 2.7-3 6-5.2 8.5-8.4-.3-3-2.2-5.5-3.3-8.3-2.7-6.3-5.8-12.5-8.5-18.8-1-2 .6-3.4 2-4.5 7.7-7 15.5-13.8 23.3-20.6z"/><a xlink:href="/regions/EM" transform="translate(-88.88 178.2)"><title>East Midlands</title><path d="M690 879s.5 6.6 1 9c2 .4 4 .5 6 .7 0 2.2.2 4.3.4 6.5 2 1.3 4 2.7 5.8 4.2-.4 3-.5 6.2-1.4 9.2-3.7 3.2-8.2 5.3-11.7 8.7 0 3 1 6 1.6 8.8-3.2 1-4 4.5-5 7-3 0-6-.7-9-1l-3.8 12c-5.8 5-12.6 8.4-18.4 13.3 1.3 2.4 3 4.6 4.4 7-1.6 2-3.2 4-5 6-1.5-2.4-2.5-5.2-4.7-7.2-5.7 1-11.3 3.3-17 5.4v6c-3.3 1.4-6.7 2.8-10.3 3.7l-4.6-13.5c2-1 4.4-2 6.4-3.2-1.8-3.7-5-6.4-7-10-.8-3.5 3.4-3.8 6-4-.2-2.5-.8-5-1.3-7.4 1.6-1.5 3.8-2.4 4.3-4.6.8-3.5 1.6-7.3.3-10.8l3.3-2.7s-1-2.8-3-6c-3-5-5-10.4-8.5-15.3-7.3-5.7-18-7.6-23-16 0-2.8 1-5.4 1.2-8.2-4.8-3.3-9.7-6.6-14.8-9.5 3-4.8 7-8.6 10-13 .7-1 .7-2.2 1-3.2-7.8-3.3-15.8-5.6-23.5-9l1-13.3c1.8-1.4 5.3-2.2 4.7-5.2-.8-7.3-1.2-14.8-2.8-22-3-2.7-6.7-4.2-10-6.2-2-1.2-5-2-5.4-4.7-1.5-5.5-2.8-11-4-16.6-1.5-4.3 3-8.5.5-12.7 3.2-5 6.2-10 9.7-14.6 2.3 1.2 4.8 2.4 6 4.8 5.2 8.5 10.7 16.8 15.7 25.2 1 1.3 1.7 3.6 3.6 3.7 6-.2 12.2-1.3 18.3-2 3-.3 6-1.4 8.6 0 3.4 1.6 5.2 2 7.6 3.4 2 .8 2 0 3-1.2.8-.6 1.7-2 2.4-3.2 2.3-4 4.8-8 7.3-12 1.5-2.8 5.7-1.7 7.5-4.3 1.5-2 3-4 4.4-6.2 1.2-2.3 11 3.6 12 .2 1.5-3.7 3.7-6.4 5.7-9.3 2 .4 4.5.7 8.7.2 2.8.8-1 5.5-.5 8.8 6-.4 10-2.6 14-3.7 4-5.3 8.7-9.7 11-11l18.3 16.5c2.2 2.2 11.3-16 14-14.3l4.6 3c2 2 4.7 3 7 4.2 1.7 1 2.4 3 3.2 4.6 5 11 10 21.7 14.8 32.5 1 2 1.8 4 1.6 6-.2 4.6-.8 9-1 13.7 0 1.7-1 3.2-2 4.4l-22 24.6c-1.4 1.2-2 3.8-.2 4.8 7 4.5 14.7 8 22 12.6-2 2.6-4 5.4-6.3 7.7-4 2-8.3 1.8-12.3 3-2.3 3-2.3 7-3.4 10.3-4.3-1.5-9-1-13.4-1l-15.6.2c-4.4.2-18.3 6.7-18.3 6.7z"/></a><a xlink:href="/regions/L" transform="translate(-88.88 178.2)"><title>London</title><path d="M725 1023.6c3.7-2.3 8.2-1.4 12.3-1.4.5 2 .3 4.2 2 5.5 2.2 2 4.5 4 7 5.8 1.2 1 2.7.4 4 .2 4.5-1 9-2.7 13.6-3l3.5 9.6c-2 3-5 5.5-7 8.6-2 6.7-5 13.4-7.3 20.3-1 3.3-3.7 6-7 7.2-3-.4-5.5-2.7-8.5-3.7l-6.7 6.2-4-6c-1.8 0-3.7-.3-5.5-.5-.7-2-1.3-4.2-2.3-6-2.8-.3-4 3-6 4.7 0-2 1.2-5-1-6.2-5.4-3.8-11.3-7-16.6-11-.4-3.7 2.5-7 2.7-10.6-.7-2.8-2-5.4-2.8-8 4.3-1 9-.8 13-2 5.7-3 11-6.8 16.5-10z"/></a><a xlink:href="/regions/SW" transform="translate(-88.88 178.2)"><title>South West</title><path d="M580.5 1018.6l-.3 3.4c0 1.7 1 4 1 4 5 10.7 9.5 21.6 15 32l-3.6 4c1.5 6.5 5.2 12.5 5 19.2-.2 2 0 4-.7 6-5 2.3-10 3.5-14.6 6 1.7 10.4 3.2 20.8 4.8 31.3.3 2.7 1.7 6-1.2 8-5-2.6-9.8-5.8-15-8.3-2.3-1.4-5-.2-7.4 0-3 .6-5 .8-5 .8-2 .7-2.3 1.8-1.4 3.3 2.4 3.4 4.5 7 6.7 10.5l4 .5c-.6 3-1.4 6-1.6 9l4.3.6c1 4.3 1.8 9 3.2 13.3 1.2-.2 2.5-.6 4-.7 1 1 2 2.3 3 3.5-7 3-15 2-22 4.5-2.5 4.2-1.5 9.3-2.5 14-13.5-1.4-27-3.6-40.3-5.2-1.5 0-3.2-.3-4.5.6-1 2.2-1.7 4.7-2.5 7-10-6-19.4-12.7-29.3-19-4.3-2.3-9.3-1.5-13.8-3 0 0-3.2-.3-4 .3-6 2.4-11.7 5.3-18 6.6-3.8 1-7.7 1.5-11.6 2.6-4 1-5.7 5.6-9 8-2.8 1-6 .2-9 1.4-1.5 1-2 3-2.8 4.6-1.6 3.7-3.5 7.3-5 11-1 2 .2 4 .6 6-2 1.8-5 3-5.7 5.6.8 2.6 3.3 4.3 5 6.4-.8 2.4-1.5 5-2.8 7.2-3 2-7 2-10 3.6-1 .5-1.4 1.8-1.3 3 .3 3 .8 6 .8 9-5.3-.8-10.6-2-15.8-3.2-5.3-1-5.4-8.5-10.6-9.5-5-1-10-1.6-15.2-2.6-.4-1.2-.8-2.7-1.5-4-1-.6-2.2-1-3.3-1.6-1-.5-3.6-2.6-3.2-1 .4 1.4 1 3 .8 4.6l-3 2.8c-3-2.6-5.4-5.5-8.3-8-1.7-1.6-4-1.2-6.2-1.3-3 0-6.3 0-9.4.2-4.2 1-6.7 6.2-11.3 5.5-5.7 0-11.6-2.2-17.2-1-3.4 5-4.6 11-8 16.2-3.7 2-8.5 1.5-12.6 3-3.6 2.2-4 7.2-7.2 9.8-4.2 2-9 2.5-13 4.7l-1.3 1.7c2.7 2.8 6 4.7 8.4 7.7-3.7 3-7.3 6.3-11.2 9-3.3-5.2-6-10.6-9-16-2.2-3.5-6.7-4.3-10.2-6-2.6-1-5.2-2.7-8-2.8-3.4 2.5-4.7 6.8-8 9.4-3 1.4-6 2.3-9.4 2.5-1.6-1.4-4-3.2-3-5.5.7-3 1.6-5.8 2.7-8.5.7-2 2.8-2.5 4.4-3.3 4.7-2 9-4 14-5.8 2 1.3 3.8 3 6.3 3.8 1-.3 2-1 2.7-1.6 7.7-7.6 15.7-14.8 23.3-22.4 4.6-4.5 10-8.4 13.8-13.5 1-4.3 0-9 .7-13.3 4.5-1 9.2-1.4 13.5-3.5 3.8-2 8-3.3 11.6-5.5 2.7-2.7.6-7.4 2.5-10.4 6.3-5 13-9 19-14 1.6-1 2-2.7 2-4.3 0-6 0-12 .4-18l1-3.2c.5-3 1.3-5.7 2.3-8.5 5.8 1 11.2 3.4 17 3.8 3-1 4.6-3.8 6.8-5.8 2.2-2.4 5.2-4.4 6.3-7.6-.5-3.7-3.5-6.5-4-10.2.4-2.2 1-5.6 3.8-5.7 10.4-2 21-3.4 31.4-5.3 2.3-.3 4.7-1 7-1 1.6 0 3 0 4.4.5 1.4.5 2 .7 3.7 1 3.3.4 6.4 1.6 9.6 1 1.3-.3 2.8-1 4 0 4 1.7 7.8 4 11.8 5.8 2.3 1 5 .7 7.3.4 10.4-1.6 20.7-3 31-4.4 1.7-.3 4-.5 4.5-2.4.5-4.7-1.2-9.4-1.3-14 0-1.4 1-2.3 1.5-3l22.5-24.6 2-2.3 2.8-2.5 2-2.4c3.4-4 6.8-8.3 9.6-13 2-3.3 5.3-6 6-10-.5-.3-1.6-1-2-1.5-4 2.3-6 6.4-9.5 9-.7-8.6-.7-17-1-25.5 4.5-3 9.2-5.6 14-8.3 1.3-1 3-1.6 3.7-3 .5-5-.5-10.2-.6-15.4 4 0 7.8-.4 11.6.6 2 1.4 3.8 3.5 5.7 5.2 4.7-1.5 9-4 13.6-5.2 10-1.2 20-.6 30-1.7l.5-1.8c-1.7-2.8-4-5-5.8-7.6 2.8-1.7 5.8-3 8.7-4.4 3 2.7 5.6 5.7 8.3 8.6 2.3 2 1.3 5.2 1.5 8-1.3 15.2-3 25.4-4.5 40.6zm-449.3 248.6l-2 2.3.4.4-1.8-1-4 3.4.8 3.3 2.3-2.3-.3 3.2 2 .7 1.4-1.7 2.8-1.4-2.4-3.5.7.6 2.6-.6 2.7 2.8 2 .7 2-2-4-4.4-5.3-.8zm2 7.6l-1.7 4 .4 1.6-.4-.3-3-.3-1.7.5-1.8-.3-.2 1.5 1.7 3.3 4.3-.3 1.3-3.4-.4-.5 2 1 3-3v-2.7l-4-1zm-11 7l-1.5 1 1.6 2.5h3.3l.3-1.7-2-.4-2-1.4zm-3.8.6l-1.4 1.6 1 1.6 1 .2 1.7-1.4-2.3-2z"/></a><a xlink:href="/regions/Y" transform="translate(-88.88 178.2)"><title>Yorkshire</title><path d="M708.3 652c.5.8 4 1.7 4 1.7 2.6 1 4.8 2.4 7 3.8-3.3 2.6-7 4.4-10.3 7-1.2 1.2-.2 3 .4 4.2L734 715c2.3 4.5 5 8.6 6.8 13.3-4-.2-8.2-.8-12.2-1.2-2 0-4-.2-5.3-1.6-4.2-4-8.2-8.3-12.4-12.4-1.5-1.3-3-2.7-5-2.3-3.4.7-6.6 2-10 3-6.3 2.3-13 3.5-19.4 4.8-2 .4 3.7 1.7 7.2 3 .2-.6 3.4-3.4 5.4-3 5-.5 14.5-4.2 13.2-3.2-.6.4 8 3.8 9.2 9.6.3 1 15 10.3 17.4 14.6-2.5 1.2-8 9-11.4 13.3L699 736c-1.5 1-9.2 8-12.5 12.6-3.6 1.2-7.6 2-9.5 2.7-1.2.5 3-7-1.7-8.3-1.3.2-8 .3-10.5-.3-1.6 1-5.7 8-6.5 9.4-1 2.5-10-2.3-11.6-1-1.6 2.8-2.7 4-5 7-1.8 3-6 1.7-7.6 4.6-3.4 5.3-6.2 11-10.3 16-3.5-1.2-6.7-3.3-10.4-4-8.2.6-16.3 2.2-24.4 3-6-9.5-11-16.2-16.5-26-.7-1-2-3.5-3.5-4.3-3.2-1.8-6.8-3.6-8.8-7l-10.4-15c-1.5-3-5-1.8-7.7-2.3-.6-2.2-2-4.4-1.2-6.7 1-3 2-6 3.2-9 1.2-4 4.8-6.2 7.3-9.4l-1.5-2c-5.2-5.5-10-11.3-15-17-3-3.4-8-3-11.8-4.3l-1.3-6.7c-3-.3-6-.2-9.2-.3-2.5-3.7-4.8-7.6-6.7-11.7 2.7-4.4 4.7-9.2 7.8-13.3 3.4-1.6 7.3-2 11-3.3 1.2-.3 1.4-1.6 1.4-2.7 0-5-1.2-10-1-15.2 1-2.7 2.7-5 4-7.5 1.2-1.8 2-4.5 4.6-4.8 5.5-1.2 11-2.5 16.4-3.5 2.8-.8 4.5 2.7 7.2 2.8 3.2-1.6 5.8-4.4 9-6 2-.3 4 .2 6 .5.6-1.6 1-3.2 2-4.6 3.7-2.6 8.7-1.8 12.6 0 2 1.4 3 3.7 4.8 5.5 2.5 3.2 6.3 3.6 10.2 4.4l17-7.6 30 1 6.8-9.4c7.7 3.8 14 8.2 21.6 12.2 2.7 1.6 4 4.6 5.6 7 8.4 13.5 17 26.8 25.5 40z"/></a><a xlink:href="/regions/NE" transform="translate(-88.88 178.2)"><title>North East</title><path d="M596.2 515.5l10 29.8 1.3 4.3s2.6 8 4.4 12.3c1 3 4 5 6 7.2 3 2.7 5.8 5.7 8.6 8.7l26.6 13.2-5.8 8-29-1-17.3 8c-1.4-.5-4.7-1.5-6-2.4-2.4-2-3.8-5.3-6.4-7.3-2.8-1.4-6-2-9-2.8-3.8.8-8.3 2-9.4 6.2-1.8 0-3.8-.8-5.4.3-2.7 1.8-5.2 3.8-7.8 5.6-1.8-1-3.4-2.6-5.4-3-4 .6-7.7 2-11.7 2-.7-3 0-6.7-2.5-9.2-3.4-4.3-7.6-8-11-12.4l3-5.5c-2-2.2-4.8-4-6-6.6 1.7-4.8 5.7-11.3 5.7-11.3s-7-10-9.8-13.7c-4.6 1.6-7.8 5.5-12 7.8-1.8-3.3-4-6.6-5.4-10 .7-2.8 3-5 4.2-7.3-.6-2-1.5-4-1.7-6.2 2-4.6 5.5-8.5 7.7-13-5-7-11-13-16-19.8 4.5-4.8 9.5-9 14-13.4 6.5-6.3 13.3-12.3 19.7-18.7 2.5-2.6 5.6-5 7.7-8 .3-2.6-1.4-4.8-2.3-7-2.8-6-5.5-12.2-8.4-18.2-.4-1.2-1.3-2.5-1-4 4.3-4.5 9.3-8.3 14-12.6 3.3-2.8 6.4-5.8 10-8.4 11.2 10.7 22 22 33.2 33 1.4 1.3 2 3.2 2.2 5 3.5 23.5 7 47 10.8 70.5z"/></a><a xlink:href="/regions/NW" transform="translate(-88.88 178.2)"><title>North West</title><path d="M513.8 639.6c-1.8.6-2.4 1.2-4 4 0 0-5 8-6.8 12.4 1.7 5 5 9.6 8 14 2.7.2 5.4 0 8 .5 1.3 2 .5 4.7 2 6.5 3.2 1.3 7 1.2 10 2.6 1.8 1.2 3 3 4.4 4.4 4 4.8 8.4 9.2 12.2 14.2-2.3 2.5-5.2 4.5-6 8-1.3 3.8-3.3 7.4-4 11.4.2 2 2.2 5.6 2.5 7.7l4.6.3h.6c2 0 3 1.8 4 3.2 4 5.4 7.5 10.8 11.3 16.2-3.5 6-7.5 11.5-11 17.4l2 3.4-1.2 3c-.2 1.3-.4 4-.2 4.7 1.8 6.8 3.6 12 4.3 19-4.2 2-8.7 3.6-12.7 6.2-3.6 3.5-6.6 7.7-10.4 11-3.7 3-8.3 4-11.8 7-1.2 2.6-.3 6-2 8.4-4.5 3-9.5 5.6-14.5 8-1.3-3-2.6-5.6-4-8-4 .5-8 3.2-12 1.4l-8-2c-1.5-5-2.4-9.8-3.4-14.6-.6-4-5.3-5-8-7.2 1.7-1.6 3.6-3 5.2-4.6 1-1 1-3-.2-3.5-5.5-4.5-11.7-8-17-12.6l-2-2.6c-1.7-4.4-3.6-8.7-4.4-13.3 4.3-2 9-3.7 13-6.3l.4-1.4c-1-5.5-4-10.4-5.2-16 3.3-6.5 6.7-13 10.5-19.5h3c-1.3-6-6.5-10-8-16-.3-6 0-12.2.5-18.4 4-2.2 8.4-4.2 12.5-6.4 1.3-.7 3-2 2.2-3.8-1.2-4-3.7-7.5-4.5-11.6 3-1.8 6-3.3 9-5.3 1.2-.8.7-2.4.2-3.4-1.6-3-3.3-5.8-4.6-8.8l-1.2-2.6c-3.5.5-6 3.4-8.6 5.5-2-2.2-3-5-4.8-7.2l-2.8-.7c-3.7 5-6.8 10.8-11 15.6-2.3.2-3.7-3-4.8-5 .5-4 2.8-7.7 3.4-11.8 0-1.3-.8-2-2-2.2-3.2 1-6 3-9 4.5-2.5-3.6-4.3-7.7-6.5-11.5L413.6 601c-.6-1.3-1.6-2.6-1-4l5.7-18.6c1.5-6 6-10.4 9.3-15.4 3.8-4.4 5-10.2 7-15.5 1-2.4 1.4-5.6 4-6.8l16.6-8.2c2-1 4.6-.8 6.4-2l32.7-31c5.4 5.8 10 12 15 18-2 3.7-4.4 7-6.6 10.8-1.6 2.6.7 5.3.7 8-1 2.4-3 4.3-4 6.7 0 1.4 1 2.5 1.6 3.7 2 3.6 4 7.3 6.2 10.7 4.3-2.2 7.8-5.6 12-8 2.6 3.3 5 7 7.4 10.4-1.7 4-4.6 7.6-5.4 12 1.2 2.5 3.7 4.2 5.5 6.4-.6 1.8-2.5 3.6-2 5.6 3.3 5.2 8.3 9 12 14 1.3 2.3 1 5.3 1 8-2 .4-4.5.7-6.6 1.6-2 1.7-3 4.3-4.3 6.4-1.2 2.5-3.2 4.8-3.7 7.6 0 5.2.8 10.4 1 15.6-3.4 1-7 1.8-9.5 2.6z"/></a><a xlink:href="/regions/WM" transform="translate(-88.88 178.2)"><title>West Midlands</title><path d="M520.5 824.8c-.5 1.5-1.3 2.4-3 3.3-5.4 2.7-10.2 6-15.8 8.4-1.6-2.7-3-5.4-4.2-8.2-2.8.5-5.5 1.2-8 2 0 3 1 6.3-.3 9-2.4 2.3-5.6 3.6-8.8 4.4-3-2-4-5.8-6-8.7-4.7.5-9.5 1.4-14.4 2.2-1.8.4-4.2.6-5 2.6-2 3.8-4.3 7.6-5.7 11.6 5 4 10.5 7.3 15.4 11.4-1 4.7-3.5 9-5.3 13.3-2 5-4.7 10-6.4 15 2.8 1.4 5.7 2.4 8.5 3.7-.3 1 0 2.6-1 3.4-5.2 4.4-11.3 7.8-16.2 12.5 6.8 3.6 15 7.8 22 11l-1.6 4.6c-3.6 10.4-7.2 20.7-11 31-.5 1.8-1.3 3.7-1.4 5.7 1 3 2.6 5.5 4 8.2 2.8 5 5.2 10.6 8.2 16 2.3-1 4.5-2 7-2.4 2 .6 3.6 2 5.3 3.2 5.5 4 11 7.8 16.5 12 5.3-3 10.4-6.2 15.6-9.3 0-5.7-1-11.4-.6-17 3.4-.3 6.2 0 9.6-.2 2.8-.2 5.5 1.3 5.5 1.3 2.7 1.6 2.8 2 5 4.2 3.6-1 7-2.7 10.3-4 3.5-1.5 7.5-1 11.2-1.3 6-.5 12.3-.2 18.4-1-1.8-2.4-4-4.6-5.4-7.3 2.4-2.8 6.3-3.6 9.4-5.5l3.4-1.7s3.5 3.3 5 5.3c2.2 2.7 5.3 4.7 6.8 8 .4 3 0 6.4.2 9.7 2.7-1.6 5.6-2.8 8-5 2.8-6 3.7-13 7-19l8 2c2-3.8 2.6-8.2 5-12 .7-1.6 3-1.4 4.5-2l-1.4-6.2c1.4-1.2 3.2-2.2 4.5-3.8.7-2 .7-4.3.8-6.5-1.5-.5-4.7.2-4-2.3 1.7-2 4-3.2 6-5-2.8-5.5-6-11-8.6-16.5-1.3-3-4.7-4-7.3-5.6-6.6-3.7-14.7-6.6-18-14 0-2.4.8-5 1.3-7l-4-2.8-3-1.7c-2.5-1.8-5.5-3.3-8-5.4-.4-1.7 1-3 1.8-4.2 3-3.7 6-7.3 8.8-11-7.2-3.8-15.2-5.6-22.6-9 0-5 .6-10 .8-14.8 0-2.8 3-3.7 4.8-5-.4-6.3-1.4-12.5-2-18.8 0-3.2-3.4-4-5.5-5.5-3.3-1.6-6-4-9.4-5-3 1-5.5 2.6-8.2 3.7-7.4 2.6-10.2 10.8-16.5 14.8-3.3 1.6-6.5 3-9.6 5l-1 6.6z"/></a><a xlink:href="/regions/SE" transform="translate(-88.88 178.2)"><title>South East</title><path d="M693.3 1050.3l1-2.3c.3-1.5 1-3 1-4.6-.8-3.5-2.7-6.6-3.6-10-1.3-6-3.2-11.7-5.2-17.4-3-1-6.2-1-8.8-2.5-2.8-3.7-5.4-7.6-7.8-11.5-2-2.3 1-4 3-5 2.7-.7 3.3 4 6.2 4 2.2 0 4.4-.3 6.6-.6 0-1.3.2-2.6.4-4-4.7-2-9.6-3.5-14-6 .8-3.8 2.4-7.5 3.5-11.4.6-4-1.7-7.7-1-11.6 2-3 5-5.5 7.3-8.3-1.8-4.2-3.8-8.4-6-12.6-5.8 4-11.6 7.8-17.2 12 1.3 2 3.3 4 3.7 6.5-1 2.5-3 4.4-4.8 6.6-1.2 1.2-2.3 3.3-4.2 2.4-1.7-2.5-3-5-4.4-7.6-4.4 1.2-9 2.5-13.3 4v3.6c0 2.6-.3 3-3.4 4-2 1-6.5 2.6-11.3 4-2-5.6-4.3-12-6-18 1-2 3.7-2.3 5.5-3.4-1.5-2-3-4-5-6-1 2.6-2 5-3.2 7.5-2.8 0-5.5-1-8-1.6-2.2 5-3.7 10.4-5.6 15.6-1 3.4-4.8 4.4-7.4 6.2-1.6 1.2-4.2 2-4.3 4.3-1.4 10.6-2.4 21.3-4 32 0 2-.6 4.4.4 6.5l9 19.8 2 4s3.6 6.7 5 10.4l-3.8 4.2c2 3.5 4 13.6 4 13.6.7 4.8.2 7.5-.3 12.5-4.5 2.3-9.4 3.6-14 5.7l4.5 29.5c.2 2.4 1 4.8.7 7.3-1.2 1.7-3 2.7-4.7 4-5.7-2.7-10.8-6.4-16.4-9-3.3-.6-6.4.6-9.5 1 1.4 3 3.3 6 5.2 8.8l5.6 1c-.3 2.8-1.3 5.7-1.7 8.7 1 .3 2.7.5 3.6 1 1.3 3.4 2 8.7 3 12.3 1.4.3 2.2-.7 3.2.2 2 1.7 3.7 4 6.2 5s5 1.4 7.7 2c1.3-2 2-4.6 4-6 4.8-2 10-2.2 15-3.7 2-.7 3-2.7 4.2-4.3-1.3-3.3-3.5-6-4.4-9.5.6-.8 1.2-1.5 2-2.2 7.2 5 13.7 11 21 15.7 5.7.3 11.4 0 17-.4l3-.6c5.6 2.2 10.2 6.2 15.7 8.6 1-2.7 2.3-5.5 3.7-8 15.2-3 30.5-5.6 45.8-8.5l3.3-.5c8.4 3.4 17 5.8 25.6 8.8 6 1.7 11.7 4.3 18 5.2 3.6-3.5 6.2-8 9.6-11.6 1.3-1.6 3.5-2 5.4-2.8 6.4-1.7 12.7-3.7 19-5.5 7.4-2 11.2-10.4 18.8-11.6l2-2c3 3 7.3 4 11.3 4 0-3-1-6 .5-9 1.3-3 2.8-5.7 4.2-8.6 1-1.5 1.7-3.3 3.5-4 4.3-1.5 9.2-1.6 13.3-4l17-10.6c1.6-.7 1-2.8.8-4.2-1-5.6-2.3-11-3.5-16.5-1-4.3 2.2-8 3-12-7 .7-13.6 3-20.6 4-5.4.7-10.7 3-16 2.5-5-3-8-8.3-13.6-10-5.6-2-11-4.8-17-6-5-1-9.7-2.5-14.5-3.5l-2-.3c-.8 0-1.4.2-1.8 1-1.5 2.3-2 5.5-4.3 7.2-3.7-.5-7-2-10.4-2.6-1.7.3-3 1.5-4.8 1.8-2-1-3.7-3-5.4-4.4-2.4 6.4-4.7 13-7.2 19.4-1.3 3-7 6.4-7 6.4-1.6 1.2-3.5.2-4 0 0 0-3.4-2-6-3l-4.6 4.7c-1 .8-2 2.3-3.4 1.5-1.8-1.8-3-4.2-4.4-6.3l-6-.7-1.8-4.5c-2.4 2-3.8 6-7.4 6.2 0-3 .3-5.7.4-8.5.2-1-1-1.7-1.8-2.3l-14-9c-2.7-1.8-2-4-1.5-6.7zm-74 114.2c.8-.7 1.8-1.5 3-1 3.8 1 7.4 3 11.2 4.3 2.8 1 5 2.8 7 4.8-1.7 3-5.6 3-8 5.2-1 2.2-.7 4.8-1.6 7-3.4 2-7 2.4-10.8 3.2-2.4-2.4-4.5-5.2-7.5-7-2.8-1.7-5.6-3.5-8.5-5-2-1.5-4.5-1-6.7-1 .6-.8 1-1.7 2-2 6.8-2 14.3-3.6 19.7-8.5z"/></a><a xlink:href="/regions/EA" transform="translate(-88.88 178.2)"><title>East Anglia</title><path d="M893 884l1.5 9.6c.8 5-1 9.7-2 14.4-3 14.2-6.3 28.2-9.3 42.4-.4 1.7-.7 3.5-2 4.8-5.7 6-12 11.6-17.6 17.7-1.7 2-4.3 4-6.3 6.4-2 2.4-4.8 4-6 7-.5 3 3.2 3 5 4-3.8 3.8-7.6 7.8-12 11-6.8 1.7-14 .5-20.8 1.7-1 .6-1.5 1.4-1.4 2.5 1.5 2.8 5 4.6 4.6 8 0 4.3.3 8.6-.3 12.8-2.6 4.4-6 8.2-9 12.3-1.4 1.7-2.7 4-5.2 4-6.5.8-13 1.4-19.7 2-2 .2-4 0-5.8.8-2 3-3 6.4-4.7 9.5-3.5-.6-6.8-2-10.3-2.5-1.4.3-2.7 1-4 1.6l-4.5-4.2c2.2-3.2 5-6 7.3-9-1-5-3-9.6-5.4-14-5 1-9.6 2.3-14.3 3.6-1.2.2-2.6 1-3.7 0-2.2-1.6-4.5-3.3-6.4-5.4-.3-.6-.4-1.8-.6-3-.4-3-.3-3-3.7-2.7-3.5.3-7-.3-10.5.4-6.3 3.2-12 7.5-18.2 10.7-4 1.4-8.5 1.3-12.7 2-3-6-3.7-12.4-6.4-18.2-2.7-2.8-8.2-1-10.4-4.7-2-3.2-7-8.8-5.5-9.6 1-1 2.6 2 4.2 3.2 3.5.6 7.5-.5 11-.7l1-8c-4.5-2-9-3.8-13.6-5.7 1-3.5 2.5-7 3.3-10.6 0-3-1-6-1-8.8-.4-1.8 1.3-2.8 2.2-4 1.7-2 4-3.8 5-6.4-1.7-5.7-5.2-10.6-7-16.3 0-2.7 1-5.2 1.6-7.7 2.8.5 5.8 1 8.7 1.2.8-2.2 2.2-6 3-6.4 1-1 2.7-1.5 2.7-1.5 1-.6 1-1.8.5-3.8l-1.5-6c3.7-2.8 8-5 11.4-8 1.5-4 1.4-8.3 1.7-12.4l-6-4.2-.2-7-6-.7c-.4-2-.6-3.6-.8-5.5 6-2.3 12-6.3 18.5-6 6.4.2 12.6 0 19 0 3 0 7.8 1.2 8.6 2.2 1.5-4 2-7.8 3.5-11.6l8.2-1.3c4.6-1 5.4-2.8 6-3.3 3-3.4 2.3-3.4 5.3-6.8 2.5 1 5 2.8 7.8 3.7 2 .2 2.4-2.2 3.2-3.5 3.6-8.3 7-16.6 10.5-25 .6-1.3 1.3-3 3-2.7H821c8.8-.4 17.3 2.3 26 3.6 3.8 1 8.4.6 11.5 3.6 8.7 7.3 17.2 14.8 26 22 2 1.8 4.4 3.4 4.7 6.2 1.3 7.4 2.6 15 3.7 22.3z"/></a></svg>
