<?xml version="1.0" encoding="UTF-8"?><svg xmlns="http://www.w3.org/2000/svg" fill-rule="evenodd" stroke-linejoin="round" stroke-miterlimit="2" viewBox="0 0 256 256" version="1.2" baseProfile="tiny-ps"><title>bustimes.org</title><path d="m0 0h256v256h-256z" fill="#ffff9e"></path><g fill-rule="nonzero"><path d="m37.784 164.36v-30.96h8.928c2.304 0 4.416.24 6.336.72s3.576 1.32 4.968 2.52 2.496 2.784 3.312 4.752 1.224 4.44 1.224 7.416c0 5.952-1.536 10.032-4.608 12.24s-7.104 3.312-12.096 3.312zm0-45.36v-26.928h7.488c5.184 0 8.976 1.008 11.376 3.024s3.6 5.472 3.6 10.368-1.32 8.376-3.96 10.44-6.84 3.096-12.6 3.096zm-20.736-42.192v102.816h34.992c6.048 0 11.112-.816 15.192-2.448s7.392-3.816 9.936-6.552 4.344-5.928 5.4-9.576 1.584-7.488 1.584-11.52c0-6.912-1.68-12.432-5.04-16.56s-7.92-6.576-13.68-7.344v-.288c5.184-1.44 9.072-4.152 11.664-8.136s3.888-8.76 3.888-14.328c0-4.896-.72-9.024-2.16-12.384s-3.456-6.048-6.048-8.064-5.688-3.456-9.288-4.32-7.512-1.296-11.736-1.296h-34.704z"></path><path d="m116.552 76.808h-20.736v71.712c0 6.912.912 12.528 2.736 16.848s4.272 7.656 7.344 10.008 6.576 3.912 10.512 4.68 8.016 1.152 12.24 1.152 8.304-.432 12.24-1.296 7.44-2.544 10.512-5.04 5.52-5.88 7.344-10.152 2.736-9.672 2.736-16.2v-71.712h-20.736v71.712c0 2.592-.168 4.968-.504 7.128s-.96 4.032-1.872 5.616-2.136 2.832-3.672 3.744-3.552 1.368-6.048 1.368c-2.4 0-4.392-.456-5.976-1.368s-2.832-2.16-3.744-3.744-1.536-3.456-1.872-5.616-.504-4.536-.504-7.128z"></path><path d="m191.288 147.512h-20.736v4.176c0 9.504 2.52 16.8 7.56 21.888s13.416 7.632 25.128 7.632c11.232 0 19.992-2.472 26.28-7.416s9.432-12.84 9.432-23.688c0-3.168-.288-6.048-.864-8.64s-1.608-4.968-3.096-7.128-3.48-4.176-5.976-6.048-5.712-3.672-9.648-5.4l-15.984-6.912c-4.416-1.824-7.296-3.816-8.64-5.976s-2.016-4.824-2.016-7.992c0-1.536.168-3.024.504-4.464s.96-2.712 1.872-3.816 2.136-1.992 3.672-2.664 3.456-1.008 5.76-1.008c4.032 0 6.912 1.32 8.64 3.96s2.592 6.408 2.592 11.304h19.872v-2.88c0-4.896-.792-9.096-2.376-12.6s-3.792-6.384-6.624-8.64-6.192-3.888-10.08-4.896-8.136-1.512-12.744-1.512c-9.888 0-17.664 2.496-23.328 7.488s-8.496 12.576-8.496 22.752c0 4.224.528 7.944 1.584 11.16s2.712 6.048 4.968 8.496 5.064 4.584 8.424 6.408 7.344 3.504 11.952 5.04c3.456 1.152 6.36 2.28 8.712 3.384s4.248 2.328 5.688 3.672 2.472 2.856 3.096 4.536.936 3.672.936 5.976c0 4.32-1.272 7.512-3.816 9.576s-5.4 3.096-8.568 3.096c-2.688 0-4.92-.384-6.696-1.152s-3.192-1.824-4.248-3.168-1.776-3-2.16-4.968-.576-4.152-.576-6.552z"></path></g></svg>
