<svg xmlns="http://www.w3.org/2000/svg" width="48.759998" height="29.240001" viewBox="0 0 48.759998 29.240001"><path style="-inkscape-font-specification:BritishRailLightNormal" d="M36.48 12l1.96 6.56h10.32l-2.32 10.68H1.56L0 21.44h3.6l.68-2.88H8.6L7.64 1.8l.96-.04 1.76 16.8h.88l.8-3.6h6.84l1.64-3.24q.6-1.2 1.72-1.28l4.16-.36q.16-.04.44-.04.48 0 .64.72l.92 4.2h1.32L30.4 12h2.16L31.92.04l.96-.04 1.24 12h2.36zm-.76 1.12h-4.4l-.6 2.84H12.96l-.76 3.6H5.24l-.4 1.88h42.04l.44-1.88h-9.56l-2.04-6.44zm-5.24 3.84l-.56 2.6H25.8v-2.6h4.68zm-6.04 0v2.6h-4.76v-2.6h4.76zm-6.12 0v2.6h-4.68l.56-2.6h4.12z"/></svg>