<svg xmlns="http://www.w3.org/2000/svg" width="46.96" height="20.56"><path d="M46.96 15.88l-9.2 2.84q.16-.64.16-1.28 0-1.6-1.12-2.72-1.12-1.16-2.72-1.16-1.64 0-2.8 1.16-1.12 1.12-1.12 2.76 0 .68.28 1.24h-16.2q.24-.64.24-1.16 0-1.68-1.12-2.84-1.08-1.16-2.68-1.16-1.64 0-2.8 1.2-1.16 1.16-1.16 2.84 0 .44.16 1.12H1.24Q0 18.72 0 17.16v-6.52q0-.68.76-1.08l.36-7.8q0-.92.32-1.32Q1.8 0 2.64 0h40.08q1.8 0 3 1.16t1.2 2.92l.04 11.8zM34.04 14.4q1.28 0 2.16.88.92.88.92 2.16 0 1.28-.92 2.2-.88.92-2.16.92-1.28 0-2.2-.92-.88-.92-.88-2.2 0-1.24.88-2.12.92-.92 2.2-.92zm-20.36 3.08q0 1.28-.88 2.2-.88.88-2.16.88-1.28 0-2.2-.88-.88-.92-.88-2.2 0-1.28.92-2.16.92-.92 2.2-.92 1.24 0 2.12.92.88.88.88 2.16zm21.8-.16Q35.32 16 34.04 16q-.6 0-1.04.44-.4.44-.4 1.04 0 .6.4 1.04.44.44 1 .44.64 0 1.04-.44.44-.44.44-1.08v-.12zm-23.36.2q0-.6-.44-1.04-.44-.48-1.04-.48-.64 0-1.08.44-.4.44-.4 1.04 0 1.48 1.48 1.48.6 0 1.04-.4.44-.44.44-1.04zm-9.04-2.08q0 .64.12.84.16.2.72.2H5q1 0 1-.72V4q0-.8-.88-.8H3.84q-.76 0-.76.84v11.4zm4.88-7.88q0 1.32 1.04 1.32h6.16q1.24 0 1.24-1.04V4.4q0-1.2-1.12-1.2H9.04q-1.08 0-1.08 1v3.36zm10.8-4.36q-1.24 0-1.24 1.16v3.2q0 1.32 1.08 1.32h6q.96 0 1.16-.32.2-.32.2-1V4.2q0-1-1-1h-6.2zm15.4 5.68q1.32 0 1.32-1.32V4.28q0-1.08-1.36-1.08h-5.64q-1.36 0-1.36 1.04v3.32q0 1.32 1.28 1.32h5.76zm2.56-1.04q0 1.04 1.52 1.04h5.52q.84 0 1.08-.24.28-.28.28-1.08V5.32q0-2.12-2.44-2.12H38q-1.28 0-1.28 1.08v3.56z"/></svg>