<svg xmlns="http://www.w3.org/2000/svg" width="135.7" height="40" viewBox="0 0 135.7 40"><defs><linearGradient x1="31.8" y1="183.3" x2="15" y2="166.5" gradientUnits="userSpaceOnUse" gradientTransform="matrix(.8 0 0 -.8 0 161.6)" id="i"><stop offset="0" stop-color="#00a0ff"/><stop offset="0" stop-color="#00a1ff"/><stop offset=".3" stop-color="#00beff"/><stop offset=".5" stop-color="#00d2ff"/><stop offset=".8" stop-color="#00dfff"/><stop offset="1" stop-color="#00e3ff"/></linearGradient><linearGradient x1="43.8" y1="172" x2="19.6" y2="172" gradientUnits="userSpaceOnUse" gradientTransform="matrix(.8 0 0 -.8 0 161.6)" id="j"><stop offset="0" stop-color="#ffe000"/><stop offset=".4" stop-color="#ffbd00"/><stop offset=".8" stop-color="orange"/><stop offset="1" stop-color="#ff9c00"/></linearGradient><linearGradient x1="34.8" y1="169.7" x2="12.1" y2="146.9" gradientUnits="userSpaceOnUse" gradientTransform="matrix(.8 0 0 -.8 0 161.6)" id="k"><stop offset="0" stop-color="#ff3a44"/><stop offset="1" stop-color="#c31162"/></linearGradient><linearGradient x1="17.3" y1="191.8" x2="27.5" y2="181.7" gradientUnits="userSpaceOnUse" gradientTransform="matrix(.8 0 0 -.8 0 161.6)" id="l"><stop offset="0" stop-color="#32a071"/><stop offset=".1" stop-color="#2da771"/><stop offset=".5" stop-color="#15cf74"/><stop offset=".8" stop-color="#06e775"/><stop offset="1" stop-color="#00f076"/></linearGradient><clipPath id="a"><path d="M0 0h124v48H0V0z"/></clipPath><mask maskUnits="userSpaceOnUse" x="0" y="0" width="1" height="1" id="m"><g clip-path="url(#a)"><path d="M0 0h124v48H0V0z" fill-opacity=".2"/></g></mask><clipPath id="n"><path d="M0 0h124v48H0V0z"/></clipPath><clipPath id="b"><path d="M0 0h124v48H0V0z"/></clipPath><pattern patternTransform="matrix(1 0 0 -1 0 48)" patternUnits="userSpaceOnUse" width="124" height="48" id="o"><g clip-path="url(#b)"><path d="M29.6 20.7L18 14.1c-.6-.4-1.2-.3-1.6 0V14c.4-.4 1-.4 1.6 0l11.7 6.6z"/></g></pattern><clipPath id="c"><path d="M0 0h124v48H0V0z"/></clipPath><mask maskUnits="userSpaceOnUse" x="0" y="0" width="1" height="1" id="p"><g clip-path="url(#c)"><path d="M0 0h124v48H0V0z" fill-opacity=".1"/></g></mask><clipPath id="q"><path d="M0 0h124v48H0V0z"/></clipPath><clipPath id="d"><path d="M0 0h124v48H0V0z"/></clipPath><pattern patternTransform="matrix(1 0 0 -1 0 48)" patternUnits="userSpaceOnUse" width="124" height="48" id="r"><g clip-path="url(#d)"><path d="M16.3 14.1c-.2.3-.3.7-.3 1.2v-.1c0-.5.1-1 .3-1.2h.1v.1z"/></g></pattern><clipPath id="e"><path d="M0 0h124v48H0V0z"/></clipPath><mask maskUnits="userSpaceOnUse" x="0" y="0" width="1" height="1" id="s"><g clip-path="url(#e)"><path d="M0 0h124v48H0V0z" fill-opacity=".1"/></g></mask><clipPath id="t"><path d="M0 0h124v48H0V0z"/></clipPath><clipPath id="f"><path d="M0 0h124v48H0V0z"/></clipPath><pattern patternTransform="matrix(1 0 0 -1 0 48)" patternUnits="userSpaceOnUse" width="124" height="48" id="u"><g clip-path="url(#f)"><path d="M33.6 23l-4-2.3h.1l4 2.1c.5.4.7.8.7 1.2 0-.4-.3-.8-.8-1z"/></g></pattern><clipPath id="g"><path d="M0 0h124v48H0V0z"/></clipPath><mask maskUnits="userSpaceOnUse" x="0" y="0" width="1" height="1" id="v"><g clip-path="url(#g)"><path d="M0 0h124v48H0V0z" fill-opacity=".3"/></g></mask><clipPath id="w"><path d="M0 0h124v48H0V0z"/></clipPath><clipPath id="h"><path d="M0 0h124v48H0V0z"/></clipPath><pattern patternTransform="matrix(1 0 0 -1 0 48)" patternUnits="userSpaceOnUse" width="124" height="48" id="x"><g clip-path="url(#h)"><path d="M18 33.9L33.6 25c.5-.2.8-.6.8-1 0 .4-.2.8-.8 1.2L18 34c-1.1.7-2 .1-2-1.2 0 1.2.9 1.7 2 1.1z" fill="#fff"/></g></pattern></defs><path d="M130.5 40H5.2a5 5 0 0 1-5-5V5.3a5 5 0 0 1 5-5h125.3a5 5 0 0 1 5 5V35a5 5 0 0 1-5 5z"/><path d="M130.5 1.1c2.4 0 4.2 1.9 4.2 4.2V35c0 2.3-1.8 4.1-4.2 4.1H5.2A4.2 4.2 0 0 1 1 35V5.3C1 3 3 1 5.2 1h125.3m0-.8H5.2a5 5 0 0 0-5 5V35a5 5 0 0 0 5 5h125.3a5 5 0 0 0 5-5V5.3a5 5 0 0 0-5-5z" fill="#a6a6a6"/><path d="M46 16.2c0 .7-.3 1.2-.7 1.6-.4.5-1 .7-1.7.7s-1.3-.2-1.8-.7c-.5-.5-.7-1-.7-1.8a2.4 2.4 0 0 1 2.5-2.5c.3 0 .6 0 1 .2l.7.5-.4.5c-.3-.4-.8-.6-1.3-.6s-1 .2-1.3.5c-.4.4-.6.8-.6 1.4a1.9 1.9 0 0 0 1.9 2c.5 0 1-.3 1.3-.6.2-.3.4-.6.4-1h-1.7v-.6h2.3v.4zM49.6 14.2h-2.2v1.5h2v.6h-2v1.5h2.2v.6h-2.8v-4.8h2.8v.6zM52.2 18.4h-.6v-4.2h-1.3v-.6h3.3v.6h-1.4v4.2zM56 18.4v-4.8h.6v4.8h-.7zM59.3 18.4h-.6v-4.2h-1.4v-.6h3.3v.6h-1.3v4.2zM66.9 17.8c-.5.5-1 .7-1.8.7-.7 0-1.3-.2-1.7-.7-.5-.5-.7-1.1-.7-1.8a2.5 2.5 0 0 1 2.4-2.5c.7 0 1.3.2 1.8.7.5.5.7 1.1.7 1.8s-.2 1.3-.7 1.8zm-3-.4c.3.3.7.5 1.2.5s1-.2 1.3-.5c.4-.4.6-.8.6-1.4 0-.6-.2-1-.6-1.4-.3-.3-.8-.5-1.3-.5s-1 .2-1.3.5c-.3.4-.5.8-.5 1.4 0 .6.2 1 .5 1.4zM68.5 18.4v-4.8h.7l2.3 3.7V13.6h.7v4.8h-.7l-2.4-4v4h-.6z" fill="#fff" stroke="#fff" stroke-width=".2" stroke-miterlimit="10" transform="matrix(1.25299 0 0 1.23841 -9.8 -9.6)"/><path d="M68.5 21.9a4.2 4.2 0 0 0-4.3 4.2c0 2.4 2 4.2 4.3 4.2 2.4 0 4.3-1.8 4.3-4.2 0-2.5-2-4.2-4.3-4.2zm0 6.7c-1.3 0-2.4-1-2.4-2.5s1.1-2.6 2.4-2.6c1.3 0 2.4 1 2.4 2.6 0 1.5-1 2.5-2.4 2.5zM59.2 22a4.2 4.2 0 0 0-4.3 4.2c0 2.4 2 4.2 4.3 4.2 2.4 0 4.3-1.8 4.3-4.2 0-2.5-2-4.2-4.3-4.2zm0 6.7c-1.3 0-2.4-1-2.4-2.5s1.1-2.6 2.4-2.6c1.3 0 2.4 1 2.4 2.6 0 1.5-1.1 2.5-2.4 2.5zM48 23.2v1.7h4.3c-.1 1-.5 1.8-1 2.3-.6.6-1.6 1.3-3.3 1.3a4.7 4.7 0 0 1-4.8-4.8c0-2.6 2.1-4.7 4.8-4.7 1.4 0 2.5.5 3.2 1.3l1.3-1.3a6.7 6.7 0 0 0-11.3 4.7c0 3.7 3.1 6.6 6.8 6.6a6 6 0 0 0 4.6-1.8 5.9 5.9 0 0 0 1.6-4.2l-.1-1.1H48zm45.4 1.3c-.3-.9-1.4-2.6-3.6-2.6s-4 1.7-4 4.2c0 2.3 1.7 4.2 4.2 4.2 2 0 3-1.2 3.5-1.9l-1.4-1c-.5.8-1.2 1.2-2.1 1.2-1 0-1.7-.4-2.1-1.2l5.7-2.4-.2-.5zM87.7 26c0-1.6 1.3-2.4 2.2-2.4.8 0 1.4.4 1.6.9l-3.8 1.5zM83 30h1.8V17.7h-1.8V30zM80 22.8a3 3 0 0 0-2.3-1 4.2 4.2 0 0 0 0 8.5 3 3 0 0 0 2.2-1v.6c0 1.7-.8 2.5-2.2 2.5-1.1 0-1.8-.8-2.1-1.5l-1.7.7a4 4 0 0 0 3.8 2.5c2.2 0 4-1.3 4-4.4V22H80v.7zm-2.2 5.8c-1.3 0-2.3-1-2.3-2.5s1-2.6 2.3-2.6c1.3 0 2.3 1.1 2.3 2.6s-1 2.5-2.3 2.5zm24.5-11h-4.5V30h1.9v-4.7h2.6c2 0 4-1.4 4-3.8s-2-3.8-4-3.8zm0 6h-2.6v-4.2h2.6c1.4 0 2.2 1.1 2.2 2.1s-.8 2.1-2.2 2.1zm11.6-1.8c-1.4 0-2.8.6-3.3 2l1.6.6c.4-.7 1-.9 1.7-.9 1 0 2 .6 2 1.6v.1c-.4-.2-1-.4-2-.4-1.8 0-3.6 1-3.6 2.7 0 1.7 1.5 2.8 3.1 2.8 1.3 0 2-.6 2.4-1.2v1h1.9v-4.8c0-2.2-1.7-3.5-3.8-3.5zm-.2 6.8c-.7 0-1.5-.3-1.5-1 0-1 1-1.3 2-1.3.8 0 1.2.1 1.7.4-.2 1.1-1.2 2-2.2 2zm10.6-6.5l-2.2 5.4-2.3-5.4h-2l3.4 7.5-2 4.2h2l5.1-11.7h-2zm-16.9 8h1.9V17.6h-1.9V30z" fill="#fff"/><path d="M16.3 34c-.2-.3-.3-.7-.3-1.2V15.2c0-.5.1-1 .3-1.2h.1l10 9.9v.2l-10 10V34z" fill="url(#i)" transform="matrix(1.25299 0 0 -1.23841 -9.8 49.9)"/><path d="M29.6 20.6l-3.3 3.3v.2l3.3 3.3h.1l4-2.2c1-.7 1-1.7 0-2.4l-4-2.2z" fill="url(#j)" transform="matrix(1.25299 0 0 -1.23841 -9.8 49.9)"/><path d="M29.7 20.6L26.3 24l-10-10c.4-.4 1-.4 1.7 0l11.7 6.6" fill="url(#k)" transform="matrix(1.25299 0 0 -1.23841 -9.8 49.9)"/><path d="M29.7 27.4L18 34c-.7.4-1.3.4-1.7 0l10-10 3.4 3.4z" fill="url(#l)" transform="matrix(1.25299 0 0 -1.23841 -9.8 49.9)"/><g mask="url(#m)" transform="matrix(1.25299 0 0 -1.23841 -9.8 49.9)"><g clip-path="url(#n)"><path d="M0 0h124v48H0V0z" fill="url(#o)"/></g></g><g mask="url(#p)" transform="matrix(1.25299 0 0 -1.23841 -9.8 49.9)"><g clip-path="url(#q)"><path d="M0 0h124v48H0V0z" fill="url(#r)"/></g></g><g><g mask="url(#s)" transform="matrix(1.25299 0 0 -1.23841 -9.8 49.9)"><g clip-path="url(#t)"><path d="M0 0h124v48H0V0z" fill="url(#u)"/></g></g></g><g><g mask="url(#v)" transform="matrix(1.25299 0 0 -1.23841 -9.8 49.9)"><g clip-path="url(#w)"><path d="M0 0h124v48H0V0z" fill="url(#x)"/></g></g></g></svg>